<svg width="70" height="70" viewBox="0 0 70 70" fill="none" xmlns="http://www.w3.org/2000/svg">
<path d="M35.0381 0.543336H35.0382C39.5109 0.543335 43.9399 1.42443 48.0722 3.13628C52.2044 4.84813 55.9589 7.35722 59.1214 10.5202C62.2838 13.6833 64.7922 17.4383 66.5033 21.5708C68.2144 25.7034 69.0947 30.1325 69.0938 34.6053C69.0938 41.3425 67.096 47.9283 63.3529 53.5299C59.6099 59.1315 54.2897 63.4973 48.0653 66.0752C41.8409 68.6531 34.9919 69.3273 28.3843 68.0125C21.7768 66.6977 15.7075 63.453 10.9441 58.6887C6.18066 53.9244 2.93705 47.8545 1.62347 41.2467C0.309886 34.6389 0.985327 27.79 3.56436 21.5661C6.1434 15.3421 10.5102 10.0228 16.1125 6.28079C21.7148 2.53876 28.301 0.542096 35.0381 0.543336Z" fill="#FFC83A" stroke="#3C3E42"/>
<path d="M63.0425 34.6055C63.0425 50.0752 50.5018 62.616 35.032 62.616C19.5622 62.616 7.02148 50.0752 7.02148 34.6055C7.02148 19.1357 19.5622 6.59497 35.032 6.59497C50.5018 6.59497 63.0425 19.1357 63.0425 34.6055Z" fill="#FFC83A" stroke="#3C3E42" stroke-width="2"/>
<path d="M60.0299 10.7396L8.67335 56.9834C2.8277 50.1314 -0.111686 41.2679 0.481279 32.2807C1.07424 23.2935 5.1527 14.893 11.8479 8.86845C18.5431 2.84391 27.326 -0.328495 36.3257 0.0269458C45.3254 0.382387 53.8307 4.23758 60.0299 10.7714V10.7396Z" fill="#3C3E42"/>
<path d="M55.4498 16.2251C53.0499 13.5265 50.1419 11.327 46.892 9.75226C43.6421 8.1775 40.1138 7.25827 36.5087 7.04707C32.9035 6.83587 29.292 7.33682 25.8805 8.52134C22.4689 9.70585 19.324 11.5507 16.6255 13.9506C13.9269 16.3505 11.7274 19.2584 10.1527 22.5084C8.57789 25.7583 7.65866 29.2866 7.44746 32.8917C7.23626 36.4969 7.73721 40.1084 8.92173 43.5199C10.1062 46.9315 11.9511 50.0763 14.351 52.7749L34.9004 34.5L55.4498 16.2251Z" fill="#FFC83A"/>
<path d="M19.9118 36.1123L19.6463 36.478L19.9834 36.779L32.8652 48.2819L33.2487 48.6243L33.5803 48.2315L51.8081 26.6413L52.1105 26.2832L51.7726 25.9583L47.6954 22.0386L47.3123 21.6703L46.968 22.0751L32.5771 38.9978L24.0003 31.4135L23.5879 31.0488L23.2645 31.4943L19.9118 36.1123Z" fill="white" stroke="#3C3E42"/>
</svg>
