<svg width="22" height="22" viewBox="0 0 22 22" fill="none" xmlns="http://www.w3.org/2000/svg">
<path d="M3.67962 1.20927L4.18178 0.707107C4.57231 0.316583 5.20547 0.316582 5.59599 0.707106L9.07067 4.18178C9.46119 4.57231 9.4612 5.20547 9.07067 5.59599L7.66547 7.0012C7.46712 7.19955 7.41795 7.50256 7.54339 7.75345C8.99376 10.6542 11.3458 13.0062 14.2465 14.4566C14.4974 14.5821 14.8005 14.5329 14.9988 14.3345L16.404 12.9293C16.7945 12.5388 17.4277 12.5388 17.8182 12.9293L21.2929 16.404C21.6834 16.7945 21.6834 17.4277 21.2929 17.8182L20.7907 18.3204C18.6794 20.4317 15.3368 20.6693 12.9481 18.8777L9.9619 16.6381C8.21837 15.3304 6.66955 13.7816 5.36191 12.0381L3.12226 9.05191C1.33072 6.66318 1.56827 3.32062 3.67962 1.20927Z" fill="#FFC83A"/>
<path fill-rule="evenodd" clip-rule="evenodd" d="M20.1215 18.8985C20.3555 18.7248 20.5793 18.5322 20.7907 18.3207L21.2929 17.8186C21.6834 17.428 21.6834 16.7949 21.2929 16.4043L17.8182 12.9297C17.4277 12.5391 16.7945 12.5391 16.404 12.9297L15.2783 14.0554L20.1215 18.8985ZM7.945 6.72202L9.07068 5.59633C9.46121 5.20581 9.46121 4.57264 9.07068 4.18212L5.59601 0.707444C5.21484 0.326281 4.60254 0.317145 4.21029 0.680031L3.61184 1.27848C3.42682 1.46947 3.25677 1.67011 3.10181 1.87883L7.945 6.72202Z" fill="#3C3E42"/>
</svg>
