<svg width="54" height="54" viewBox="0 0 54 54" fill="none" xmlns="http://www.w3.org/2000/svg">
<path d="M27 54C41.9117 54 54 41.9117 54 27C54 12.0883 41.9117 0 27 0C12.0883 0 0 12.0883 0 27C0 41.9117 12.0883 54 27 54Z" fill="#5AADEC"/>
<path fill-rule="evenodd" clip-rule="evenodd" d="M37.5709 21.5359C37.5805 21.7536 37.5858 21.9731 37.5858 22.1927C37.5858 28.8766 32.554 36.5811 23.3479 36.5811C20.5221 36.5811 17.8915 35.7464 15.6777 34.3106C16.0692 34.3575 16.4676 34.3814 16.8713 34.3814C19.2164 34.3814 21.3732 33.5724 23.0861 32.2163C20.8968 32.1756 19.0483 30.7133 18.4116 28.7031C18.7164 28.7615 19.0308 28.7943 19.3521 28.7943C19.8084 28.7943 20.2515 28.7341 20.6709 28.6181C18.3819 28.1543 16.6576 26.1104 16.6576 23.6585C16.6576 23.6373 16.6576 23.6151 16.6585 23.5948C17.3328 23.9727 18.1043 24.2011 18.9239 24.2268C17.5824 23.3213 16.6988 21.7722 16.6988 20.0178C16.6988 19.0901 16.9449 18.2209 17.3757 17.4738C19.8425 20.5347 23.5309 22.5476 27.6887 22.7601C27.6029 22.3892 27.56 22.0041 27.56 21.6067C27.56 18.814 29.8 16.5488 32.5628 16.5488C34.0024 16.5488 35.3011 17.1631 36.2153 18.1457C37.3563 17.9191 38.4247 17.4995 39.3941 16.9179C39.0175 18.0996 38.2268 19.0901 37.1908 19.7168C38.204 19.5947 39.1708 19.3238 40.0648 18.9211C39.3976 19.9337 38.549 20.8251 37.5709 21.5359Z" fill="white"/>
</svg>
