<svg width="112" height="112" viewBox="0 0 112 112" fill="none" xmlns="http://www.w3.org/2000/svg">
<path d="M56.4613 1.37036H56.4614C63.69 1.37036 70.8478 2.79433 77.5261 5.56091C84.2043 8.32749 90.2721 12.3825 95.3831 17.4944C100.494 22.6063 104.548 28.6748 107.313 35.3536C110.079 42.0323 111.501 49.1904 111.5 56.4191C111.5 67.3072 108.271 77.9507 102.222 87.0037C96.1726 96.0566 87.5745 103.112 77.5151 107.279C67.4556 111.445 56.3866 112.534 45.7079 110.409C35.0293 108.285 25.2205 103.041 17.5222 95.3409C9.8239 87.6412 4.5818 77.8315 2.45888 67.1524C0.335954 56.4733 1.42756 45.4045 5.59562 35.3459C9.76368 25.2872 16.821 16.6905 25.8751 10.6428C34.9291 4.59523 45.5732 1.36836 56.4613 1.37036Z" fill="#FFC83A" stroke="black"/>
<path d="M102.078 56.4192C102.078 81.6178 81.6501 102.045 56.4514 102.045C31.2527 102.045 10.8252 81.6178 10.8252 56.4192C10.8252 31.2205 31.2527 10.793 56.4514 10.793C81.6501 10.793 102.078 31.2205 102.078 56.4192Z" fill="#FFC83A" stroke="#3C3E42" stroke-width="2"/>
<path d="M96.6281 18.0614L14.0868 92.3854C4.69161 81.3727 -0.0326324 67.1271 0.920392 52.6827C1.87342 38.2383 8.42839 24.7368 19.1891 15.0541C29.9498 5.37132 44.0657 0.272574 58.5302 0.843845C72.9947 1.41512 86.6646 7.61126 96.6281 18.1125V18.0614Z" fill="#3C3E42"/>
<path d="M89.7001 26.9019C81.8691 18.0865 70.857 12.7429 59.0861 12.0468C47.3153 11.3507 35.7501 15.359 26.9346 23.19C18.1192 31.021 12.7756 42.0331 12.0795 53.804C11.3834 65.5748 15.3917 77.14 23.2227 85.9555L56.4614 56.4287L89.7001 26.9019Z" fill="#FFC83A"/>
<path d="M47.9848 40.9442V70.3442H41.1808V46.4042H35.3008V40.9442H47.9848Z" fill="white"/>
<path d="M65.692 70.8482C63.256 70.8482 61.086 70.2462 59.182 69.0422C57.278 67.8382 55.78 66.1022 54.688 63.8342C53.624 61.5382 53.092 58.8082 53.092 55.6442C53.092 52.4802 53.624 49.7642 54.688 47.4962C55.78 45.2002 57.278 43.4502 59.182 42.2462C61.086 41.0422 63.256 40.4402 65.692 40.4402C68.128 40.4402 70.298 41.0422 72.202 42.2462C74.106 43.4502 75.59 45.2002 76.654 47.4962C77.746 49.7642 78.292 52.4802 78.292 55.6442C78.292 58.8082 77.746 61.5382 76.654 63.8342C75.59 66.1022 74.106 67.8382 72.202 69.0422C70.298 70.2462 68.128 70.8482 65.692 70.8482ZM65.692 65.0942C67.484 65.0942 68.884 64.3242 69.892 62.7842C70.928 61.2442 71.446 58.8642 71.446 55.6442C71.446 52.4242 70.928 50.0442 69.892 48.5042C68.884 46.9642 67.484 46.1942 65.692 46.1942C63.928 46.1942 62.528 46.9642 61.492 48.5042C60.484 50.0442 59.98 52.4242 59.98 55.6442C59.98 58.8642 60.484 61.2442 61.492 62.7842C62.528 64.3242 63.928 65.0942 65.692 65.0942Z" fill="white"/>
<path fill-rule="evenodd" clip-rule="evenodd" d="M48.9848 39.9442V71.3442H40.1808V47.4042H34.3008V39.9442H48.9848ZM41.1808 46.4042V70.3442H47.9848V40.9442H35.3008V46.4042H41.1808ZM53.7838 64.2613L53.7807 64.2546C52.6424 61.7982 52.092 58.9181 52.092 55.6442C52.092 52.3708 52.6422 49.5025 53.7827 47.0715L53.785 47.0667C54.9474 44.6226 56.564 42.7185 58.6476 41.401C60.7245 40.0876 63.0829 39.4402 65.692 39.4402C68.3012 39.4402 70.6596 40.0876 72.7365 41.401C74.8207 42.7189 76.4239 44.624 77.5583 47.0691C78.7278 49.5011 79.292 52.3705 79.292 55.6442C79.292 58.9202 78.727 61.8029 77.5583 64.2612C76.4227 66.6807 74.8187 68.5707 72.7365 69.8874C70.6596 71.2007 68.3012 71.8482 65.692 71.8482C63.0829 71.8482 60.7245 71.2007 58.6476 69.8874C56.5672 68.5718 54.9505 66.6843 53.787 64.268L53.7838 64.2613ZM76.654 63.8342C77.746 61.5382 78.292 58.8082 78.292 55.6442C78.292 52.4802 77.746 49.7642 76.654 47.4962C75.59 45.2002 74.106 43.4502 72.202 42.2462C70.298 41.0422 68.128 40.4402 65.692 40.4402C63.256 40.4402 61.086 41.0422 59.182 42.2462C57.278 43.4502 55.78 45.2002 54.688 47.4962C53.624 49.7642 53.092 52.4802 53.092 55.6442C53.092 58.8082 53.624 61.5382 54.688 63.8342C55.78 66.1022 57.278 67.8382 59.182 69.0422C61.086 70.2462 63.256 70.8482 65.692 70.8482C68.128 70.8482 70.298 70.2462 72.202 69.0422C74.106 67.8382 75.59 66.1022 76.654 63.8342ZM69.0623 62.226C69.9323 60.9328 70.446 58.7945 70.446 55.6442C70.446 52.4939 69.9323 50.3556 69.0623 49.0624L69.0553 49.0519C68.226 47.7849 67.1358 47.1942 65.692 47.1942C64.2831 47.1942 63.1866 47.7797 62.3253 49.0571C61.4793 50.3533 60.98 52.4949 60.98 55.6442C60.98 58.7935 61.4793 60.9351 62.3254 62.2314C63.1866 63.5086 64.2831 64.0942 65.692 64.0942C67.1358 64.0942 68.2261 63.5035 69.0553 62.2365L69.0623 62.226ZM61.492 62.7842C60.484 61.2442 59.98 58.8642 59.98 55.6442C59.98 52.4242 60.484 50.0442 61.492 48.5042C62.528 46.9642 63.928 46.1942 65.692 46.1942C67.484 46.1942 68.884 46.9642 69.892 48.5042C70.928 50.0442 71.446 52.4242 71.446 55.6442C71.446 58.8642 70.928 61.2442 69.892 62.7842C68.884 64.3242 67.484 65.0942 65.692 65.0942C63.928 65.0942 62.528 64.3242 61.492 62.7842Z" fill="#3C3E42"/>
</svg>
