<svg width="127" height="117" viewBox="0 0 127 117" fill="none" xmlns="http://www.w3.org/2000/svg">
<path d="M6.36704 116.325L5.93621 45.9889L121.386 45.2448L121.817 115.581L6.36704 116.325Z" fill="#FFC83A" stroke="#3C3E42"/>
<path d="M5.61056 45.2952L5.82031 78.8892L122.166 78.1535L121.956 44.5596L5.61056 45.2952Z" fill="#3C3E42"/>
<path d="M126.001 35.4998L126.001 67.4998L1.50053 67.4998L1.50053 35.4998L126.001 35.4998Z" fill="#FFC83A" stroke="#3C3E42"/>
<path d="M38.4811 16.725L38.5928 35.7116L47.528 35.6495L47.4627 24.8466L81.5284 24.6438L81.5937 35.4467L90.5288 35.3846L90.3978 16.3889L38.4811 16.725Z" fill="#3C3E42"/>
<path d="M21.1225 72.4688L30.1624 72.412C31.543 72.4033 32.6553 71.277 32.6466 69.8963L32.553 54.9966C32.5443 53.6159 31.418 52.5037 30.0373 52.5124L20.9975 52.5692C19.6168 52.5778 18.5046 53.7041 18.5133 55.0848L18.6069 69.9845C18.6156 71.3652 19.7419 72.4774 21.1225 72.4688Z" fill="white" stroke="#3C3E42"/>
<path d="M99.1225 72.4688L108.162 72.412C109.543 72.4033 110.655 71.277 110.647 69.8963L110.553 54.9966C110.544 53.6159 109.418 52.5037 108.037 52.5124L98.9975 52.5692C97.6168 52.5778 96.5046 53.7041 96.5133 55.0848L96.6069 69.9845C96.6156 71.3652 97.7419 72.4774 99.1225 72.4688Z" fill="white" stroke="#3C3E42"/>
<line x1="1.00098" y1="41.5" x2="126.001" y2="41.5" stroke="#3C3E42"/>
</svg>
