<svg width="54" height="54" viewBox="0 0 54 54" fill="none" xmlns="http://www.w3.org/2000/svg">
<path d="M27 54C41.9117 54 54 41.9117 54 27C54 12.0883 41.9117 0 27 0C12.0883 0 0 12.0883 0 27C0 41.9117 12.0883 54 27 54Z" fill="#4982C0"/>
<path d="M38.9764 32.4618C38.9108 32.3519 38.5054 31.4695 36.5542 29.6559C34.5117 27.7569 34.7861 28.0652 37.2463 24.7816C38.7447 22.7817 39.3437 21.5605 39.1562 21.0384C38.9779 20.5407 37.8758 20.672 37.8758 20.672L34.2114 20.6934C34.2114 20.6934 33.9401 20.6567 33.7373 20.7773C33.5407 20.8964 33.4142 21.1712 33.4142 21.1712C33.4142 21.1712 32.8334 22.7191 32.0591 24.0351C30.4265 26.8119 29.7726 26.9585 29.5059 26.786C28.8855 26.3845 29.0409 25.1708 29.0409 24.3098C29.0409 21.6185 29.4479 20.4964 28.2468 20.2064C27.8474 20.1102 27.5547 20.0461 26.535 20.0354C25.2271 20.0217 24.119 20.04 23.4925 20.3468C23.0748 20.5514 22.7532 21.0078 22.9498 21.0338C23.1922 21.0659 23.7409 21.1819 24.0321 21.5788C24.4086 22.0902 24.3949 23.2412 24.3949 23.2412C24.3949 23.2412 24.6113 26.4089 23.8903 26.8028C23.3949 27.073 22.7166 26.5219 21.2609 24.0015C20.5155 22.7115 19.9515 21.2842 19.9515 21.2842C19.9515 21.2842 19.8433 21.0185 19.6497 20.8766C19.415 20.7041 19.0857 20.6491 19.0857 20.6491L15.6011 20.6705C15.6011 20.6705 15.0783 20.6857 14.8862 20.9132C14.7155 21.1162 14.8725 21.5345 14.8725 21.5345C14.8725 21.5345 17.601 27.9263 20.6893 31.1489C23.523 34.1029 26.7392 33.909 26.7392 33.909H28.1965C28.1965 33.909 28.637 33.8602 28.8611 33.6174C29.0684 33.3945 29.0608 32.9763 29.0608 32.9763C29.0608 32.9763 29.0318 31.0177 29.9403 30.7291C30.8351 30.4452 31.9844 32.6221 33.2023 33.4602C34.123 34.0937 34.8226 33.9548 34.8226 33.9548L38.0801 33.909C38.0801 33.909 39.7843 33.8037 38.9764 32.4618Z" fill="white"/>
</svg>
