<svg width="133" height="95" viewBox="0 0 133 95" fill="none" xmlns="http://www.w3.org/2000/svg">
<path d="M124.918 0H15.4644C11.3419 0 8 3.34192 8 7.46438V82.8058C8 86.9283 11.3419 90.2702 15.4644 90.2702H124.918C129.04 90.2702 132.382 86.9283 132.382 82.8058V7.46438C132.382 3.34192 129.04 0 124.918 0Z" fill="#3C3E42"/>
<path d="M12.0347 4.88965H121.488C125.058 4.88965 127.952 7.78385 127.952 11.354V86.6955C127.952 90.2657 125.058 93.1599 121.488 93.1599H12.0347C8.46452 93.1599 5.57031 90.2657 5.57031 86.6955V11.354C5.57031 7.78385 8.46452 4.88965 12.0347 4.88965Z" fill="#FFC83A" stroke="#3C3E42" stroke-width="2"/>
<path d="M128.953 11.3543C128.953 11.3543 128.953 11.2645 128.953 11.0847C128.945 10.8165 128.919 10.5491 128.876 10.2843C128.725 9.24231 128.352 8.2451 127.78 7.36106C127.361 6.71076 126.847 6.12655 126.256 5.62765C125.534 5.03576 124.708 4.58297 123.821 4.29227C123.581 4.21095 123.329 4.16387 123.076 4.09111C122.824 4.01835 122.554 4.00979 122.284 3.96699L121.458 3.92847H116.844L72.2165 3.96271H41.4003H24.2288H12.968C12.2081 3.93228 11.447 3.97528 10.6953 4.09111C9.18171 4.36898 7.79458 5.11796 6.732 6.23113C6.19541 6.78558 5.75173 7.42293 5.41803 8.11863C5.07399 8.81397 4.84832 9.56182 4.75034 10.3314C4.67647 11.1138 4.65217 11.9 4.67758 12.6854V24.7508C4.67758 31.2736 4.67758 37.9262 4.67758 44.7087V86.653C4.68021 88.4432 5.33094 90.1719 6.50944 91.5194C7.67187 92.8593 9.28375 93.7284 11.042 93.9633C11.9187 94.0392 12.799 94.0635 13.6785 94.0361H81.3715H116.746H120.863C121.535 94.0567 122.208 94.0123 122.871 93.9034C123.523 93.7779 124.155 93.5648 124.75 93.2699C125.045 93.125 125.331 92.962 125.606 92.782C125.873 92.5937 126.131 92.3908 126.376 92.1742C127.105 91.5332 127.699 90.7534 128.123 89.8804C128.547 89.0074 128.792 88.0586 128.846 87.0896C128.888 81.9535 128.846 77.0144 128.871 72.3063C128.871 53.4742 128.901 38.2201 128.91 27.6827C128.91 22.4139 128.91 18.3265 128.931 15.5488C128.931 14.1663 128.931 13.1092 128.931 12.3944C128.931 11.6796 128.931 11.3201 128.931 11.3201C128.931 11.3201 128.931 11.6839 128.931 12.3944C128.931 13.1049 128.931 14.1663 128.931 15.5488C128.931 18.3265 128.931 22.3968 128.953 27.6827C128.953 38.2201 128.953 53.4656 128.987 72.3063C128.987 77.0144 129.017 81.9492 128.987 87.0981C128.915 88.4177 128.496 89.6949 127.771 90.8004C127.41 91.3559 126.979 91.8623 126.487 92.3069C126.236 92.5291 125.971 92.7364 125.696 92.9275C125.42 93.1111 125.134 93.2783 124.84 93.4283C124.232 93.7326 123.585 93.9515 122.918 94.0789C122.244 94.1927 121.56 94.2386 120.876 94.2158H116.759H81.3844H42.2905H13.6614C12.7718 94.2434 11.8814 94.2177 10.9949 94.1388C9.18339 93.901 7.52197 93.0071 6.3254 91.6264C5.11718 90.2423 4.44855 88.4689 4.44219 86.6316C4.44219 72.255 4.44219 58.225 4.44219 44.6872V24.7508C4.44219 21.4923 4.44219 18.268 4.44219 15.078V12.694C4.4166 11.8985 4.44233 11.1022 4.51922 10.31C4.62042 9.51928 4.85334 8.75109 5.20831 8.03731C5.55037 7.32029 6.00721 6.66395 6.5608 6.09417C7.10888 5.53055 7.73781 5.05164 8.4269 4.6732C9.11956 4.30549 9.86431 4.04569 10.6354 3.90279L11.2132 3.81291L11.791 3.78295C12.1805 3.76155 12.5614 3.78295 12.9423 3.78295H41.3746H72.1909L116.819 3.82147H121.411L122.246 3.86427C122.516 3.91135 122.785 3.94131 123.042 3.99695C123.299 4.05259 123.551 4.1168 123.791 4.2024C124.685 4.49689 125.517 4.95555 126.243 5.55488C126.838 6.05844 127.353 6.64857 127.771 7.30542C128.341 8.19691 128.709 9.2018 128.85 10.2501C128.894 10.5161 128.917 10.7851 128.918 11.0547C128.953 11.2645 128.953 11.3543 128.953 11.3543Z" fill="#3C3E42"/>
<rect y="31" width="65" height="35" rx="9" fill="#3C3E42"/>
<path d="M49.5 59C55.299 59 60 54.299 60 48.5C60 42.701 55.299 38 49.5 38C43.701 38 39 42.701 39 48.5C39 54.299 43.701 59 49.5 59Z" fill="white"/>
<path d="M52.5 48.5C52.5 50.1569 51.1569 51.5 49.5 51.5C47.8431 51.5 46.5 50.1569 46.5 48.5C46.5 46.8431 47.8431 45.5 49.5 45.5C51.1569 45.5 52.5 46.8431 52.5 48.5Z" fill="#FFC83A" stroke="#3C3E42"/>
</svg>
