<svg width="112" height="112" viewBox="0 0 112 112" fill="none" xmlns="http://www.w3.org/2000/svg">
<path d="M56.3385 1.37012H56.3384C49.1098 1.37012 41.952 2.79408 35.2737 5.56066C28.5955 8.32724 22.5277 12.3823 17.4167 17.4941C12.3058 22.606 8.25188 28.6746 5.48653 35.3533C2.72118 42.0321 1.29855 49.1902 1.29988 56.4188C1.29988 67.307 4.52868 77.9505 10.578 87.0034C16.6273 96.0564 25.2253 103.112 35.2847 107.278C45.3442 111.445 56.4132 112.534 67.0919 110.409C77.7705 108.284 87.5793 103.04 95.2776 95.3407C102.976 87.6409 108.218 77.8312 110.341 67.1522C112.464 56.4731 111.372 45.4043 107.204 35.3456C103.036 25.2869 95.9788 16.6902 86.9247 10.6426C77.8707 4.59499 67.2266 1.36811 56.3385 1.37012Z" fill="#FFC83A" stroke="black"/>
<path d="M10.7222 56.4192C10.7222 81.6178 31.1497 102.045 56.3484 102.045C81.5471 102.045 101.975 81.6178 101.975 56.4192C101.975 31.2205 81.5471 10.793 56.3484 10.793C31.1497 10.793 10.7222 31.2205 10.7222 56.4192Z" fill="#FFC83A" stroke="#3C3E42" stroke-width="2"/>
<path d="M16.1717 18.0612L98.713 92.3851C108.108 81.3725 112.832 67.1268 111.879 52.6825C110.926 38.2381 104.371 24.7366 93.6107 15.0538C82.85 5.37108 68.7341 0.272329 54.2696 0.843601C39.8051 1.41487 26.1352 7.61101 16.1717 18.1123V18.0612Z" fill="#3C3E42"/>
<path d="M23.0997 26.9019C30.9307 18.0865 41.9428 12.7429 53.7137 12.0468C65.4845 11.3507 77.0497 15.359 85.8652 23.19C94.6806 31.021 100.024 42.0331 100.72 53.804C101.416 65.5748 97.4081 77.14 89.5771 85.9555L56.3384 56.4287L23.0997 26.9019Z" fill="#FFC83A"/>
<path d="M41.7061 61.124H45.2041V65.942H41.7061V72.014H45.2041V80H52.9921V72.014H62.2981V65.942H52.9921V61.124H62.6941C72.8581 61.124 77.2141 53.93 77.2141 46.802C77.2141 39.608 72.8581 32.48 62.6941 32.48H45.2041V53.336H41.7061V61.124ZM52.9921 40.268H62.2981C67.5121 40.268 69.4921 43.502 69.4921 46.736C69.4921 50.036 67.5121 53.336 62.2321 53.336H52.9921V40.268Z" fill="white"/>
<path fill-rule="evenodd" clip-rule="evenodd" d="M44.7041 31.98H62.6941C67.9026 31.98 71.6757 33.8116 74.1409 36.6129C76.5965 39.4034 77.7141 43.1096 77.7141 46.802C77.7141 50.4621 76.5961 54.1677 74.1414 56.9657C71.677 59.7749 67.9041 61.624 62.6941 61.624H53.4921V65.442H62.7981V72.514H53.4921V80.5H44.7041V72.514H41.2061V65.442H44.7041V61.624H41.2061V52.836H44.7041V31.98ZM45.7041 32.98V53.836H42.2061V60.624H45.7041V66.442H42.2061V71.514H45.7041V79.5H52.4921V71.514H61.7981V66.442H52.4921V60.624H62.6941C67.648 60.624 71.1351 58.8761 73.3897 56.3062C75.654 53.7253 76.7141 50.2699 76.7141 46.802C76.7141 43.3003 75.6536 39.8456 73.3902 37.2735C71.1364 34.7124 67.6495 32.98 62.6941 32.98H45.7041ZM52.4921 39.768H62.2981C65.0128 39.768 66.9538 40.6133 68.2136 41.9457C69.4668 43.2711 69.9921 45.0213 69.9921 46.736C69.9921 48.4811 69.4683 50.2638 68.2076 51.6146C66.9395 52.9733 64.981 53.836 62.2321 53.836H52.4921V39.768ZM53.4921 40.768V52.836H62.2321C64.7631 52.836 66.4346 52.0487 67.4765 50.9323C68.5258 49.8081 68.9921 48.2908 68.9921 46.736C68.9921 45.2167 68.5273 43.7329 67.487 42.6328C66.4534 41.5396 64.7973 40.768 62.2981 40.768H53.4921Z" fill="#3C3E42"/>
</svg>
