<svg width="47" height="32" viewBox="0 0 47 32" fill="none" xmlns="http://www.w3.org/2000/svg">
<path d="M43.4475 1.30249H3.58614C1.92108 1.30249 0.571289 2.66331 0.571289 4.34196V28.3183C0.571289 29.997 1.92108 31.3578 3.58614 31.3578H43.4475C45.1125 31.3578 46.4623 29.997 46.4623 28.3183V4.34196C46.4623 2.66331 45.1125 1.30249 43.4475 1.30249Z" fill="#FFC83A" stroke="#3C3E42" stroke-linecap="round" stroke-linejoin="round"/>
<path d="M46.4623 6.03381H0.571289V14.4785H46.4623V6.03381Z" fill="#3C3E42" stroke="#3C3E42" stroke-miterlimit="10"/>
<path d="M41.4228 19.5243H37.5939C36.7309 19.5243 36.0312 20.2297 36.0312 21.0998V24.9599C36.0312 25.83 36.7309 26.5354 37.5939 26.5354H41.4228C42.2859 26.5354 42.9855 25.83 42.9855 24.9599V21.0998C42.9855 20.2297 42.2859 19.5243 41.4228 19.5243Z" fill="white" stroke="#3C3E42" stroke-linecap="round" stroke-linejoin="round"/>
<path d="M21.4237 24.7875H4.90234V26.7175H21.4237V24.7875Z" fill="white" stroke="#3C3E42" stroke-linecap="round" stroke-linejoin="round"/>
</svg>
