<svg width="35" height="51" viewBox="0 0 35 51" fill="none" xmlns="http://www.w3.org/2000/svg">
<rect x="0.367188" y="8.27051" width="33.945" height="41.8919" rx="2" fill="#3C3E42"/>
<rect x="3.08301" y="0.837891" width="28.5138" height="46.6216" rx="2" fill="#FFC83A"/>
<rect x="6.97754" y="4.71631" width="20.7248" height="14.5405" rx="3.5" fill="white" stroke="#3C3E42"/>
<path d="M6.97754 28.7162V25.6621H12.0876V28.7162H6.97754Z" fill="#FFC83A" stroke="#3C3E42"/>
<path d="M6.97754 34.1214V31.0674H12.0876V34.1214H6.97754Z" fill="#FFC83A" stroke="#3C3E42"/>
<path d="M6.97754 39.5272V36.4731H12.0876V39.5272H6.97754Z" fill="#FFC83A" stroke="#3C3E42"/>
<path d="M14.4453 28.7162V25.6621H19.5554V28.7162H14.4453Z" fill="#FFC83A" stroke="#3C3E42"/>
<path d="M14.4453 34.1214V31.0674H19.5554V34.1214H14.4453Z" fill="#FFC83A" stroke="#3C3E42"/>
<path d="M14.4453 39.5267V36.4727H19.5554V39.5267H14.4453Z" fill="#FFC83A" stroke="#3C3E42"/>
<path d="M21.9131 28.7162V25.6621H27.0232V28.7162H21.9131Z" fill="#FFC83A" stroke="#3C3E42"/>
<path d="M21.9131 34.1214V31.0674H27.0232V34.1214H21.9131Z" fill="#FFC83A" stroke="#3C3E42"/>
<path d="M21.9131 39.5272V36.4731H27.0232V39.5272H21.9131Z" fill="#FFC83A" stroke="#3C3E42"/>
<path d="M17.1795 13.6756L15.3027 12.13L15.9325 11.623L17.0296 12.5264L19.3081 9.62158L20.055 10.0088L17.1795 13.6756Z" fill="#263238"/>
</svg>
