<svg width="27" height="33" viewBox="0 0 27 33" fill="none" xmlns="http://www.w3.org/2000/svg">
<path d="M17.7087 1.20875C17.0912 0.59125 16.2625 0.25 15.4012 0.25H3.75C1.9625 0.25 0.5 1.7125 0.5 3.5V29.5C0.5 31.2875 1.94625 32.75 3.73375 32.75H23.25C25.0375 32.75 26.5 31.2875 26.5 29.5V11.3488C26.5 10.4875 26.1588 9.65875 25.5413 9.0575L17.7087 1.20875ZM18.375 26.25H8.625C7.73125 26.25 7 25.5187 7 24.625C7 23.7313 7.73125 23 8.625 23H18.375C19.2687 23 20 23.7313 20 24.625C20 25.5187 19.2687 26.25 18.375 26.25ZM18.375 19.75H8.625C7.73125 19.75 7 19.0187 7 18.125C7 17.2313 7.73125 16.5 8.625 16.5H18.375C19.2687 16.5 20 17.2313 20 18.125C20 19.0187 19.2687 19.75 18.375 19.75ZM15.125 10V2.6875L24.0625 11.625H16.75C15.8562 11.625 15.125 10.8938 15.125 10Z" fill="white"/>
</svg>
