<svg width="198" height="86" viewBox="0 0 198 86" fill="none" xmlns="http://www.w3.org/2000/svg">
<path d="M54.6413 49.9086C51.8359 49.9086 49.7716 49.3022 48.4485 48.0893C47.1254 46.8642 46.4639 45.1491 46.4639 42.944C46.4639 40.7633 47.1193 39.0604 48.4301 37.8354C49.7532 36.6103 51.8236 35.9977 54.6413 35.9977C57.4713 35.9977 59.5417 36.6103 60.8525 37.8354C62.1756 39.0604 62.8371 40.7633 62.8371 42.944C62.8371 45.1614 62.1817 46.8765 60.8709 48.0893C59.56 49.3022 57.4835 49.9086 54.6413 49.9086ZM54.6413 46.1598C56.0012 46.1598 56.9812 45.9025 57.5815 45.388C58.1818 44.8612 58.482 44.0465 58.482 42.944C58.482 41.8659 58.1818 41.0635 57.5815 40.5367C56.9812 40.0099 56.0012 39.7465 54.6413 39.7465C53.2937 39.7465 52.3198 40.0099 51.7195 40.5367C51.1192 41.0635 50.819 41.8659 50.819 42.944C50.819 44.0343 51.1192 44.8428 51.7195 45.3696C52.3198 45.8964 53.2937 46.1598 54.6413 46.1598Z" fill="#3C3E42"/>
<path d="M76.1361 43.3482C76.8589 43.9363 77.4102 44.5917 77.79 45.3145C78.182 46.0251 78.5618 46.901 78.9293 47.9423C79.2356 48.7876 79.4806 49.3818 79.6644 49.7248H74.2617C74.1882 49.5166 74.0902 49.1552 73.9677 48.6406C73.8452 48.0771 73.7105 47.6054 73.5634 47.2256C73.4287 46.8459 73.2327 46.5151 72.9754 46.2333C72.5589 45.7923 72.0382 45.5105 71.4134 45.388C70.8009 45.2533 69.9556 45.1859 68.8775 45.1859V49.7248H64.3018C64.3998 47.3481 64.4488 45.1246 64.4488 43.0542C64.4488 40.9838 64.3998 38.7603 64.3018 36.3836H68.8775V41.1798C69 41.1921 69.1838 41.1982 69.4288 41.1982C71.3399 39.3116 72.761 37.7067 73.6921 36.3836H79.646L73.931 42.0803C74.7395 42.3988 75.4746 42.8215 76.1361 43.3482Z" fill="#3C3E42"/>
<path d="M85.4716 46.362C90.1269 46.3375 93.502 46.2701 95.5969 46.1598C95.5112 46.6621 95.456 47.1828 95.4315 47.7218C95.4193 48.2486 95.4132 48.9163 95.4132 49.7248H81.1348C81.2328 47.3481 81.2818 45.1246 81.2818 43.0542C81.2818 40.9838 81.2328 38.7603 81.1348 36.3836H95.4132V39.7097H85.4716V41.4739C86.0596 41.4861 86.9294 41.4922 88.081 41.4922C90.0289 41.4922 92.0442 41.4555 94.1268 41.382V44.5427C92.0442 44.4692 90.0289 44.4324 88.081 44.4324C86.9294 44.4324 86.0596 44.4386 85.4716 44.4508V46.362Z" fill="#3C3E42"/>
<path d="M104.77 35.9058C104.194 35.9058 103.661 35.7772 103.171 35.5199C102.694 35.2627 102.314 34.8951 102.032 34.4174C101.75 33.9396 101.609 33.3822 101.609 32.7451H103.429C103.429 33.2229 103.551 33.5782 103.796 33.8109C104.053 34.0315 104.378 34.1417 104.77 34.1417C105.162 34.1417 105.481 34.0315 105.726 33.8109C105.983 33.5782 106.112 33.2229 106.112 32.7451H107.931C107.931 33.3822 107.79 33.9396 107.508 34.4174C107.226 34.8951 106.841 35.2627 106.35 35.5199C105.873 35.7772 105.346 35.9058 104.77 35.9058ZM101.573 36.402L101.26 46.7111L105.726 36.402H112.488C112.402 38.4724 112.36 40.6898 112.36 43.0542C112.36 45.4309 112.402 47.6544 112.488 49.7248H107.765L108.096 39.6914L103.649 49.7248H97.0705C97.1685 47.3481 97.2175 45.1246 97.2175 43.0542C97.2175 40.9961 97.1685 38.7787 97.0705 36.402H101.573Z" fill="#3C3E42"/>
<path d="M130.163 40.243C128.24 40.1817 126.372 40.145 124.558 40.1327V49.7251H119.964V40.1327C118.139 40.145 116.277 40.1817 114.378 40.243V36.3839H130.163V40.243Z" fill="#FFC83A"/>
<path d="M139.984 36.4023C142.422 36.4023 144.119 36.8372 145.075 37.707C146.03 38.5646 146.508 39.7774 146.508 41.3456C146.508 42.4236 146.318 43.3424 145.938 44.102C145.559 44.8493 144.891 45.4373 143.935 45.8661C142.98 46.2826 141.663 46.4909 139.984 46.4909H136.162V49.7251H131.642C131.74 47.3485 131.789 45.1249 131.789 43.0545C131.789 40.9842 131.74 38.7606 131.642 36.3839H136.162V36.4023H139.984ZM138.698 42.9443C139.715 42.9443 140.474 42.9075 140.977 42.834C141.491 42.7483 141.847 42.6013 142.043 42.393C142.251 42.1847 142.355 41.8785 142.355 41.4742C142.355 41.0699 142.257 40.7698 142.061 40.5737C141.877 40.3655 141.528 40.2246 141.014 40.1511C140.511 40.0776 139.739 40.0408 138.698 40.0408H136.162V42.9443H138.698Z" fill="#FFC83A"/>
<path d="M159.568 49.7251C159.335 49.0268 159.022 48.1509 158.63 47.0973H152.768L151.849 49.7251H147.237L152.382 36.3839H159.145L164.327 49.7251H159.568ZM157.583 44.2306C157.117 42.9443 156.64 41.6579 156.15 40.3716L155.709 39.1771C155.28 40.292 154.649 41.9765 153.816 44.2306H157.583Z" fill="#FFC83A"/>
<path d="M177.142 43.3486C177.865 43.9366 178.416 44.592 178.796 45.3148C179.188 46.0254 179.568 46.9013 179.935 47.9426C180.241 48.788 180.486 49.3821 180.67 49.7251H175.268C175.194 49.5169 175.096 49.1555 174.973 48.6409C174.851 48.0774 174.716 47.6057 174.569 47.226C174.434 46.8462 174.238 46.5154 173.981 46.2336C173.565 45.7926 173.044 45.5108 172.419 45.3883C171.807 45.2536 170.961 45.1862 169.883 45.1862V49.7251H165.308C165.406 47.3485 165.455 45.1249 165.455 43.0545C165.455 40.9842 165.406 38.7606 165.308 36.3839H169.883V41.1802C170.006 41.1924 170.19 41.1985 170.435 41.1985C172.346 39.3119 173.767 37.707 174.698 36.3839H180.652L174.937 42.0806C175.745 42.3991 176.48 42.8218 177.142 43.3486Z" fill="#FFC83A"/>
<path d="M190.226 49.9089C187.457 49.9089 185.418 49.3209 184.107 48.1448C182.796 46.9687 182.141 45.2903 182.141 43.1097C182.141 40.9168 182.796 39.1833 184.107 37.9092C185.418 36.6351 187.457 35.998 190.226 35.998C194.097 35.998 196.688 37.3273 197.999 39.9857C196.897 40.3655 195.604 40.9351 194.122 41.6947C193.767 41.0087 193.203 40.5002 192.431 40.1695C191.672 39.8387 190.894 39.6733 190.097 39.6733C188.921 39.6733 188.045 39.9857 187.47 40.6105C186.894 41.223 186.606 41.9826 186.606 42.8892C186.606 43.8692 186.912 44.6717 187.525 45.2965C188.15 45.909 189.099 46.2153 190.373 46.2153C191.39 46.2153 192.198 46.0499 192.799 45.7191C193.399 45.3761 193.84 44.837 194.122 44.102C195.126 44.641 196.413 45.2475 197.981 45.9212C197.368 47.4036 196.345 48.4388 194.912 49.0268C193.479 49.6149 191.917 49.9089 190.226 49.9089Z" fill="#FFC83A"/>
<path d="M41.4303 55.3481L35.2384 44.7619C34.7389 43.8625 34.7396 42.8642 35.2384 41.9656L41.4303 31.3794C41.9298 30.48 42.8285 29.9812 43.8275 29.9811L64.2011 29.7812C66.3984 29.7812 67.8969 27.0845 66.498 25.2871C61.0049 17.9967 52.3156 13.1027 42.4286 13.203C30.6441 13.203 19.3419 20.4893 15.6632 29.7819C11.9844 39.0744 11.4375 48.3728 15.5637 56.6477C19.6898 64.9227 30.644 73.3262 42.3291 73.2266C52.1168 73.2266 60.9053 68.4329 66.3984 61.1425C67.7966 59.3444 66.3984 56.7481 64.1016 56.6484L43.9267 56.6472C42.9284 56.6479 42.0302 56.1472 41.4303 55.3481Z" fill="#FFC83A"/>
</svg>
