<svg width="166" height="87" viewBox="0 0 166 87" fill="none" xmlns="http://www.w3.org/2000/svg">
<path d="M53.6299 48.2782C51.4244 48.2782 49.8015 47.8014 48.7614 46.848C47.7212 45.8849 47.2012 44.5365 47.2012 42.803C47.2012 41.0886 47.7164 39.7499 48.7469 38.7868C49.7871 37.8237 51.4147 37.3422 53.6299 37.3422C55.8546 37.3422 57.4823 37.8237 58.5128 38.7868C59.5529 39.7499 60.073 41.0886 60.073 42.803C60.073 44.5462 59.5577 45.8945 58.5272 46.848C57.4967 47.8014 55.8642 48.2782 53.6299 48.2782ZM53.6299 45.3311C54.6989 45.3311 55.4694 45.1288 55.9413 44.7243C56.4132 44.3102 56.6492 43.6697 56.6492 42.803C56.6492 41.9554 56.4132 41.3246 55.9413 40.9105C55.4694 40.4963 54.6989 40.2893 53.6299 40.2893C52.5704 40.2893 51.8048 40.4963 51.3329 40.9105C50.8609 41.3246 50.625 41.9554 50.625 42.803C50.625 43.6601 50.8609 44.2958 51.3329 44.7099C51.8048 45.124 52.5704 45.3311 53.6299 45.3311Z" fill="white"/>
<path d="M70.528 43.1208C71.0962 43.5831 71.5296 44.0983 71.8281 44.6666C72.1363 45.2252 72.4349 45.9138 72.7238 46.7324C72.9646 47.3969 73.1572 47.864 73.3017 48.1337H69.0544C68.9966 47.97 68.9196 47.6859 68.8233 47.2814C68.727 46.8383 68.621 46.4675 68.5055 46.169C68.3995 45.8704 68.2454 45.6104 68.0432 45.3889C67.7157 45.0422 67.3064 44.8207 66.8152 44.7243C66.3337 44.6184 65.6691 44.5654 64.8216 44.5654V48.1337H61.2244C61.3015 46.2653 61.34 44.5173 61.34 42.8896C61.34 41.262 61.3015 39.514 61.2244 37.6456H64.8216V41.4161C64.9179 41.4257 65.0624 41.4305 65.255 41.4305C66.7574 39.9474 67.8746 38.6857 68.6066 37.6456H73.2872L68.7944 42.124C69.43 42.3744 70.0079 42.7066 70.528 43.1208Z" fill="white"/>
<path d="M77.867 45.49C81.5268 45.4707 84.1801 45.4178 85.827 45.3311C85.7596 45.726 85.7163 46.1353 85.697 46.559C85.6874 46.9732 85.6825 47.4981 85.6825 48.1337H74.4576C74.5347 46.2653 74.5732 44.5173 74.5732 42.8896C74.5732 41.262 74.5347 39.514 74.4576 37.6456H85.6825V40.2604H77.867V41.6472C78.3293 41.6569 79.0131 41.6617 79.9184 41.6617C81.4497 41.6617 83.034 41.6328 84.6713 41.575V44.0598C83.034 44.002 81.4497 43.9731 79.9184 43.9731C79.0131 43.9731 78.3293 43.9779 77.867 43.9876V45.49Z" fill="white"/>
<path d="M93.0385 37.27C92.5859 37.27 92.1669 37.1688 91.7817 36.9666C91.4061 36.7643 91.1075 36.4754 90.886 36.0998C90.6645 35.7242 90.5537 35.286 90.5537 34.7852H91.9839C91.9839 35.1608 92.0802 35.4401 92.2729 35.6231C92.4751 35.7964 92.7303 35.8831 93.0385 35.8831C93.3467 35.8831 93.5971 35.7964 93.7897 35.6231C93.992 35.4401 94.0931 35.1608 94.0931 34.7852H95.5233C95.5233 35.286 95.4126 35.7242 95.191 36.0998C94.9695 36.4754 94.6662 36.7643 94.2809 36.9666C93.9053 37.1688 93.4912 37.27 93.0385 37.27ZM90.5248 37.66L90.2792 45.7645L93.7897 37.66H99.106C99.0386 39.2876 99.0049 41.0309 99.0049 42.8896C99.0049 44.758 99.0386 46.5061 99.106 48.1337H95.3933L95.6533 40.2459L92.1573 48.1337H86.9854C87.0625 46.2653 87.101 44.5173 87.101 42.8896C87.101 41.2716 87.0625 39.5284 86.9854 37.66H90.5248Z" fill="white"/>
<path d="M112.671 40.6793C111.158 40.6312 109.69 40.6023 108.264 40.5926V48.1337H104.653V40.5926C103.218 40.6023 101.754 40.6312 100.261 40.6793V37.6456H112.671V40.6793Z" fill="white"/>
<path d="M120.391 37.66C122.308 37.66 123.642 38.0019 124.393 38.6857C125.144 39.3599 125.52 40.3133 125.52 41.5461C125.52 42.3936 125.371 43.116 125.072 43.7131C124.774 44.3006 124.249 44.7629 123.497 45.0999C122.746 45.4274 121.711 45.5911 120.391 45.5911H117.387V48.1337H113.833C113.91 46.2653 113.948 44.5173 113.948 42.8896C113.948 41.262 113.91 39.514 113.833 37.6456H117.387V37.66H120.391ZM119.38 42.803C120.18 42.803 120.777 42.7741 121.172 42.7163C121.576 42.6489 121.855 42.5333 122.009 42.3696C122.173 42.2058 122.255 41.9651 122.255 41.6472C122.255 41.3294 122.178 41.0935 122.024 40.9394C121.879 40.7756 121.605 40.6649 121.2 40.6071C120.806 40.5493 120.199 40.5204 119.38 40.5204H117.387V42.803H119.38Z" fill="white"/>
<path d="M135.787 48.1337C135.604 47.5847 135.358 46.8961 135.05 46.0679H130.441L129.719 48.1337H126.093L130.138 37.6456H135.454L139.528 48.1337H135.787ZM134.226 43.8142C133.86 42.803 133.485 41.7917 133.1 40.7804L132.753 39.8414C132.416 40.7178 131.92 42.0421 131.265 43.8142H134.226Z" fill="white"/>
<path d="M149.603 43.1208C150.171 43.5831 150.604 44.0983 150.903 44.6666C151.211 45.2252 151.51 45.9138 151.799 46.7324C152.039 47.3969 152.232 47.864 152.376 48.1337H148.129C148.071 47.97 147.994 47.6859 147.898 47.2814C147.802 46.8383 147.696 46.4675 147.58 46.169C147.474 45.8704 147.32 45.6104 147.118 45.3889C146.79 45.0422 146.381 44.8207 145.89 44.7243C145.408 44.6184 144.744 44.5654 143.896 44.5654V48.1337H140.299C140.376 46.2653 140.415 44.5173 140.415 42.8896C140.415 41.262 140.376 39.514 140.299 37.6456H143.896V41.4161C143.993 41.4257 144.137 41.4305 144.33 41.4305C145.832 39.9474 146.949 38.6857 147.681 37.6456H152.362L147.869 42.124C148.505 42.3744 149.083 42.7066 149.603 43.1208Z" fill="white"/>
<path d="M159.889 48.2782C157.712 48.2782 156.109 47.8159 155.078 46.8913C154.048 45.9667 153.532 44.6473 153.532 42.933C153.532 41.209 154.048 39.8462 155.078 38.8446C156.109 37.843 157.712 37.3422 159.889 37.3422C162.932 37.3422 164.969 38.3871 166 40.4771C165.133 40.7756 164.117 41.2235 162.952 41.8206C162.672 41.2813 162.229 40.8816 161.622 40.6215C161.025 40.3615 160.414 40.2315 159.788 40.2315C158.863 40.2315 158.175 40.4771 157.722 40.9683C157.269 41.4498 157.043 42.0469 157.043 42.7596C157.043 43.5301 157.284 44.1609 157.765 44.6521C158.256 45.1337 159.003 45.3744 160.004 45.3744C160.804 45.3744 161.439 45.2444 161.911 44.9844C162.383 44.7147 162.73 44.2909 162.952 43.7131C163.741 44.1368 164.752 44.6136 165.985 45.1433C165.504 46.3086 164.7 47.1225 163.573 47.5847C162.446 48.047 161.218 48.2782 159.889 48.2782Z" fill="white"/>
<path d="M42.0866 55.7749L35.7965 45.0208C35.2891 44.1072 35.2898 43.0931 35.7965 42.1802L42.0865 31.4261C42.594 30.5125 43.5069 30.0058 44.5218 30.0057L65.2184 29.8026C67.4505 29.8026 68.9728 27.0631 67.5517 25.2373C61.9715 17.8313 53.1444 12.8597 43.1007 12.9616C31.1293 12.9616 19.648 20.3634 15.9109 29.8033C12.1739 39.2432 11.6182 48.689 15.8098 57.0951C20.0014 65.5012 31.1292 74.038 42.9996 73.9368C52.9425 73.9368 61.8704 69.0672 67.4506 61.6611C68.8709 59.8346 67.4506 57.1971 65.1173 57.0958L44.6225 57.0945C43.6084 57.0952 42.6959 56.5867 42.0866 55.7749Z" fill="#FFC83A"/>
</svg>
