<svg width="1440" height="970" viewBox="0 0 1440 970" fill="none" xmlns="http://www.w3.org/2000/svg">
<path d="M1211.63 499.883H1211.41L1125.84 384.557L955.067 327.002H954.823L869.275 211.73L698.505 154.202H698.261L612.496 38.7946L497.592 0.108337H501.035L613.418 38.0625H613.634L699.209 153.308L869.98 210.862H870.196L955.88 326.162L1126.65 383.717H1126.89L1212.58 499.043L1383.35 556.598H1383.59L1439.89 632.506V634.838L1382.53 557.438L1211.63 499.883ZM1190.24 514.306H1190.02L1104.45 399.061L933.68 341.506H933.436L847.888 226.261L676.982 168.706H676.765L591.217 53.4611L433.54 0.352417H436.982L592.112 52.6207H592.356L677.904 167.893L848.674 225.421H848.891L934.466 340.693L1105.24 398.22H1105.45L1191.03 513.466L1361.8 571.02H1362.04L1439.73 675.665V678.051L1361.12 571.779L1190.24 514.306ZM1275.57 802.215L1190.02 687.106L1019.12 629.551H1018.9L933.381 514.225L762.611 456.67H762.367L676.657 341.343L505.887 283.789H505.67L419.986 168.462L249.081 110.907H248.864L166.65 0.108337H168.385L250.002 110.067L420.908 167.622H421.125L506.673 282.867L677.443 340.422H677.66L763.235 455.667L934.005 513.222H934.249L1020.12 628.711L1190.89 686.238H1191.11L1276.66 801.511L1439.97 856.436V857.71L1275.82 802.432L1275.57 802.215ZM1296.96 787.82L1211.41 672.683L1040.51 615.156H1040.29L954.714 499.911L783.944 442.356H783.7L698.152 327.111L527.382 269.556H527.138L441.59 154.311L270.468 96.512H270.251L198.798 0.108337H200.533L271.443 95.6715L442.349 153.199H442.566L528.114 268.471L699.02 325.999H699.236L784.811 441.244L955.582 498.799H955.826L1041.37 614.044L1212.28 671.599H1212.5L1298.07 786.844L1439.92 834.612V836.103L1297.2 788.037L1296.96 787.82ZM1403.92 370.026L1318.29 254.916L1147.52 197.362H1147.28L1061.73 82.1165L890.96 24.5618H890.716L872.69 0.162659H874.425L891.854 23.6942L1062.6 81.0862H1062.81L1148.39 196.331L1319.16 253.886H1319.4L1405.03 369.375L1439.95 381.141V382.307L1404.11 370.243L1403.92 370.026ZM1425.31 355.603L1339.73 240.494L1168.96 182.939H1168.75L1083.06 67.5312L912.293 10.0036H912.049L904.73 0.108337H906.275L913.052 9.21735L1083.82 66.7722H1084.04L1169.61 182.017L1340.38 239.572H1340.63L1426.45 354.898L1440 359.453V360.619L1425.55 355.739L1425.31 355.603ZM1254.4 470.957H1254.19L1168.64 355.685L997.732 298.157H997.515L911.94 182.912L741.17 125.357H740.926L655.27 10.0036L625.941 0.108337H629.383L656.191 9.13605H656.408L741.983 124.462L912.753 182.017H912.997L998.545 297.262L1169.32 354.817H1169.56L1255.11 470.062L1426.01 527.617H1426.23L1439.78 545.835V548.139L1425.12 528.376L1254.4 470.957ZM1233.02 485.352H1232.8L1147.22 370.107L976.453 312.553H976.237L890.553 197.28L719.783 139.725H719.539L633.991 24.4803L561.861 0.0812378H565.331L634.913 23.5316H635.13L720.705 138.777L891.475 196.331H891.692L977.267 311.604L1148.04 369.131H1148.28L1233.83 484.404L1404.73 541.931H1404.95L1439.86 588.967V591.272L1403.81 542.717L1233.02 485.352ZM1382.53 730.319L1296.96 615.156L1126.19 557.601H1125.95L1040.29 442.193L869.383 384.72H869.166L783.591 269.475L612.821 211.92H612.604L527.03 96.6746L356.259 39.1199H356.015L327.31 0.433655H328.909L357.072 38.3878L527.843 95.9427H528.06L613.526 210.917L784.296 268.471H784.54L870.088 383.717L1040.86 441.271H1041.08L1126.65 556.544L1297.42 614.071H1297.66L1383.67 729.56L1439.97 748.537V749.703L1382.75 730.428L1382.53 730.319ZM1425.31 701.501L1339.73 586.256L1168.96 528.701H1168.75L1083.17 413.456L912.401 355.902H912.157L826.393 240.494L655.622 182.939H655.405L569.695 67.5312L398.925 10.0036H398.708L391.254 0.108337H392.988L399.738 9.21735L570.508 66.7722H570.752L656.3 182.017L827.206 239.572H827.423L913.106 354.898L1083.88 412.453H1084.09L1169.67 527.698L1340.44 585.253H1340.68L1426.45 700.742L1440 705.297V706.435L1425.55 701.583L1425.31 701.501ZM1403.92 715.924L1318.29 600.652L1147.52 543.124H1147.28L1061.73 427.879L890.96 370.324H890.716L805.168 255.079L634.398 197.524H634.181L548.606 82.2791L377.836 24.7244H377.592L359.566 0.325317H361.301L378.758 23.8569L549.528 81.3845H549.772L635.32 196.63L806.09 254.185H806.334L891.882 369.43L1062.79 426.984H1063L1148.58 542.229L1319.35 599.784H1319.59L1405.03 715.138L1439.95 726.904V728.069L1404.11 715.978L1403.92 715.924ZM1318.29 773.533L1232.8 658.288L1062.03 600.733H1061.81L976.237 485.488L805.466 427.933H805.25L719.675 312.661L548.904 255.106H548.66L462.76 139.644L291.99 82.1165H291.773L230.838 0.108337H232.546L292.776 81.2489L463.682 138.804H463.899L549.474 254.049L720.244 311.604H720.488L806.036 426.849L976.806 484.404H977.05L1062.6 599.649L1233.72 657.447H1233.94L1319.51 772.693L1439.97 813.358V814.523L1318.59 773.614L1318.29 773.533ZM1254.35 816.909H1254.13L1168.64 701.501L997.732 643.947H997.515L911.94 528.674L741.17 471.147H740.926L655.27 355.739L484.364 298.211H484.147L398.599 182.966L227.694 125.33H227.477L141.875 10.0036L112.546 0.108337H115.988L142.796 9.13605H143.04L228.615 124.462L399.386 182.017H399.629L485.177 297.262L656.191 354.898H656.408L741.983 470.144L912.753 527.698H912.997L998.545 642.944L1169.32 700.498H1169.56L1255.11 815.743L1426.23 873.542H1426.45L1440 891.733V894.065L1425.31 874.383L1254.35 816.909ZM1339.68 759.219L1254.19 643.892L1083.42 586.338H1083.17L997.624 471.092L826.609 413.456H826.393L740.926 298.13L570.156 240.575H569.912L484.364 125.33L313.594 67.7753H313.35L263.23 0.270996H264.965L314.488 67.0161L485.069 124.462H485.286L570.861 239.735L741.631 297.262H741.875L827.667 412.616L998.437 470.144H998.654L1084.2 585.335L1255.11 642.889H1255.32L1340.9 758.134L1439.97 791.507V792.673L1339.98 759.219H1339.68ZM1382.53 384.557L1296.96 269.312L1126.19 211.757H1125.95L1040.4 96.512L869.492 38.9572H869.275L840.542 0.270996H842.277L870.413 38.2252L1041.18 95.7801H1041.4L1126.98 211.025L1297.75 268.58H1297.99L1383.54 383.825L1439.84 402.802V403.968L1382.75 384.72L1382.53 384.557ZM1403.92 888.805L1233.15 831.25H1232.93L1147.22 715.924L976.453 658.369H976.237L890.553 543.043L719.783 485.488H719.539L633.991 370.243L463.221 312.688H463.004L377.429 197.443L206.659 139.888H206.415L120.515 24.3991L48.412 0H51.8545L121.437 23.4501H121.653L207.228 138.695L377.999 196.25H378.243L463.79 311.522L634.561 369.05H634.777L720.352 484.322L891.123 541.85H891.339L976.914 657.122L1147.68 714.65H1147.93L1233.48 829.895L1404.84 887.938H1405.06L1439.97 935.055V937.359L1403.92 888.805ZM1361.12 744.715L1275.57 629.47L1104.69 571.779H1104.45L1018.9 456.507L847.996 399.061H847.779L762.205 283.789L591.434 226.261H591.217L505.534 110.907L334.764 53.3527H334.52L294.999 0.108337H296.734L335.577 52.4308L506.347 109.986H506.564L592.139 225.231L762.909 282.786H763.153L848.918 398.275L1019.82 455.829H1020.04L1105.59 571.075L1276.49 628.711H1276.71L1362.29 743.956L1439.97 770.117V771.283L1361.36 744.796L1361.12 744.715ZM1318.29 82.0352L1257.49 0.108337H1259.23L1319.46 81.2489L1439.92 121.914V123.053L1318.54 82.1979L1318.29 82.0352ZM1339.68 67.6126L1289.59 0.108337H1291.29L1340.84 66.8535L1439.92 100.226V101.365L1339.98 67.6938L1339.68 67.6126ZM1275.52 110.989L1193.33 0.243896H1195.04L1276.66 110.203L1439.97 165.128V166.293L1275.82 110.907L1275.52 110.989ZM1361.07 53.3527L1321.65 0.243896H1323.39L1362.23 52.5665L1439.92 78.7277V79.8934L1361.31 53.4339L1361.07 53.3527ZM1254.35 125.466H1254.13L1168.58 10.2204L1139.39 0.108337H1142.83L1169.61 9.13605H1169.86L1255.32 124.462L1426.23 182.017H1426.45L1440 200.235V202.54L1425.34 182.803L1254.35 125.466ZM1425.25 10.1392L1417.91 0.243896H1419.64L1426.39 9.35303L1439.95 13.9075V15.0732L1425.5 10.2204L1425.25 10.1392ZM1403.87 24.5346L1385.84 0.135498H1387.55L1405.01 23.6671L1439.92 35.4058V36.5715L1404.08 24.5074L1403.87 24.5346ZM1361.12 398.98L1275.57 283.707L1104.8 226.18H1104.56L1018.9 110.907L847.996 53.2984H847.779L808.367 0.189758H810.074L848.918 52.5123L1019.82 110.067H1020.04L1105.59 225.312L1276.49 282.867H1276.71L1362.29 398.275L1439.97 424.436V425.385L1361.36 398.925L1361.12 398.98ZM1382.53 38.7946L1353.8 0.108337H1355.54L1383.67 38.0625L1439.97 57.0396V58.2053L1382.75 38.9301L1382.53 38.7946ZM1233.02 139.725H1232.8L1147.22 24.4803L1075.12 0.0812378H1078.56L1148.15 23.5316H1148.39L1233.94 138.777L1404.84 196.331H1405.06L1439.97 243.367V245.699L1403.92 197.118L1233.02 139.725ZM1296.96 442.193L1211.41 326.948L1040.51 269.393H1040.29L954.714 154.148L783.944 96.5933H783.7L712.22 0.270996H713.82L784.757 95.8342L955.527 153.362H955.771L1041.32 268.634L1212.22 326.162H1212.44L1298.02 441.407L1439.86 489.175V490.449L1297.09 442.383L1296.96 442.193ZM1339.73 413.375L1254.19 298.13L1083.42 240.575H1083.17L997.624 125.33L826.718 67.7753H826.501L776.164 0.108337H777.899L827.667 66.8535L998.437 124.462H998.654L1084.2 239.735L1255.11 297.262H1255.32L1340.9 412.535L1439.97 445.88V447.073L1339.98 413.456L1339.73 413.375ZM1318.29 427.798L1232.74 312.525L1061.97 254.971H1061.76L976.128 139.644L805.358 82.1165H805.141L744.179 0.108337H745.914L806.144 81.2489L976.914 138.804H977.158L1062.71 254.049L1233.61 311.604H1233.83L1319.4 426.849L1439.86 467.514V468.761L1318.48 427.879L1318.29 427.798ZM1275.52 456.589L1190.02 341.343L1019.12 283.789H1018.9L933.381 168.462L762.611 110.907H762.367L680.181 0.162659H681.915L763.533 110.121L934.303 167.676H934.547L1020.12 282.948L1190.89 340.503H1191.11L1276.66 455.748L1439.92 510.727V511.866L1275.76 456.589H1275.52ZM1211.63 154.148H1211.41L1125.84 38.7946L1010.96 0.108337H1014.4L1126.76 38.0625H1127L1212.58 153.281L1383.35 210.835H1383.59L1439.89 286.744V289.075L1382.53 211.676L1211.63 154.148ZM1190.24 168.544H1190.02L1104.45 53.2984L946.935 0.108337H950.377L1105.51 52.3768H1105.72L1191.3 167.649L1362.07 225.177H1362.31L1440 329.822V332.153L1361.12 226.098L1190.24 168.544ZM1296.96 96.4307L1225.45 0.108337H1227.19L1298.12 95.6715L1439.97 143.44V144.605L1297.2 96.512L1296.96 96.4307ZM100.267 556.679L271.172 614.207H271.389L356.964 729.56L527.734 787.088H527.951L613.526 902.523L784.296 960.078H784.54L791.886 969.973H790.151L783.375 960.864L612.604 903.309H612.388L526.921 787.956L356.015 730.401H355.771L270.251 615.156L99.4805 557.601H99.2636L13.5803 442.193L0.027107 437.639V436.473L14.6917 441.407L100.267 556.679ZM57.4926 412.616L143.068 527.861L313.838 585.416H314.055L399.629 700.688L570.4 758.216H570.644L656.408 873.624L827.314 931.151H827.531L856.264 969.864H854.529L826.393 931.91L655.487 874.464H655.27L569.695 759.137L398.925 701.583H398.708L313.133 586.338L142.363 528.783H142.119L56.3542 413.375L0.054214 394.398V393.232L57.2758 412.508L57.4926 412.616ZM206.93 311.685H207.174L292.776 427.011L463.682 484.566H463.899L549.474 599.811L720.244 657.366H720.488L806.036 772.611L976.806 830.166H977.05L1062.6 945.438L1134.73 969.837H1131.29L1061.68 946.387H1061.46L976.128 831.169L805.358 773.614H805.141L719.431 658.288L548.66 600.733H548.416L462.869 485.488L292.098 427.933H291.882L206.063 312.525L35.2925 254.971H35.0757L0.162639 207.935V205.603L36.1599 254.13L206.93 311.685ZM185.543 326.08H185.787L271.335 441.326L442.241 498.88H442.458L528.005 614.125L698.911 671.68H699.128L784.703 786.925L955.473 844.48H955.717L1041.26 959.725L1070.62 969.62H1067.18L1040.34 960.566H1040.13L954.714 845.592L783.944 788.064H783.7L698.044 672.683L527.165 615.156H526.921L441.373 499.911L270.468 442.274H270.251L184.676 326.948L13.9056 269.393H13.6887L0.135532 251.175V248.871L14.8001 268.634L185.543 326.08ZM44.075 969.946H40.6054L13.7972 960.891H13.5803L0.027107 942.673V940.342L14.6917 960.105L44.075 969.946ZM121.653 369.375L207.228 484.648L377.999 542.175H378.243L463.899 657.529L634.669 715.056H634.886L720.596 830.383L891.367 887.938H891.583L952.41 969.864H950.675L890.553 888.805L719.783 831.25H719.539L633.883 715.924L463.113 658.369H462.896L377.185 543.043L206.415 485.488H206.171L120.515 370.161L0.054214 329.496V328.358L121.437 369.213L121.653 369.375ZM100.267 383.798L185.841 499.043L356.612 556.598H356.856L442.403 671.843L613.526 729.479H613.743L699.182 844.805L869.953 902.36H870.169L920.289 969.892H918.581L869.166 903.201L698.288 845.592H698.044L612.496 730.319L441.59 672.765H441.373L355.798 557.52L185.028 499.965H184.784L99.1281 384.557L0.054214 351.212V350.046L100.05 383.717L100.267 383.798ZM78.8796 398.275L164.454 513.52L335.225 571.075H335.469L421.071 686.32L591.841 743.874H592.085L677.795 859.147L848.565 916.702H848.782L888.222 969.81H886.487L847.779 917.596L676.874 860.068H676.657L591.109 744.715L420.339 687.187H420.122L334.33 571.779L163.56 514.306H163.316L77.7411 398.98L0.054214 372.818V371.653L78.6627 398.112L78.8796 398.275ZM57.4926 66.8535L143.068 182.099L313.838 239.653H314.055L399.738 354.898L570.508 412.453H570.752L656.3 527.698L827.314 585.335H827.531L913.106 700.607L1083.88 758.134H1084.09L1169.78 873.624L1340.55 931.151H1340.79L1369.5 969.864H1367.79L1339.62 931.91L1168.85 874.464H1168.64L1083.06 759.137L912.293 701.583H912.049L826.501 586.338L655.731 528.783H655.514L569.939 413.538L399.169 355.983H398.952L313.025 240.494L142.254 182.939H142.01L56.3542 67.5312L0.054214 48.5541V47.3884L57.2758 66.6637L57.4926 66.8535ZM36.1599 81.2489L121.708 196.494L292.559 254.049H292.776L378.351 369.294L549.121 426.849H549.365L634.913 542.094L805.683 599.649H805.927L891.475 714.894L1062.38 772.449H1062.6L1148.39 888.019L1319.16 945.574H1319.4L1337.43 969.973H1335.69L1318.29 946.414L1147.52 888.968H1147.28L1061.68 773.533L890.906 715.978H890.662L805.114 600.706L634.344 543.178H634.127L548.552 427.933L377.782 370.378H377.538L291.638 254.916L120.867 197.362H120.623L34.9672 82.0352L0.054214 70.2422V69.0765L35.8889 81.0862L36.1599 81.2489ZM100.321 210.917L271.172 268.471H271.389L356.964 383.717L527.734 441.271H527.951L613.526 556.679L784.296 614.207H784.54L870.305 729.56L1041.08 787.088H1041.29L1127 902.523L1297.77 960.078H1298.02L1305.34 969.973H1303.63L1296.85 960.864L1126.08 903.309H1125.84L1040.29 787.956L869.383 730.401H869.166L783.591 615.156L612.821 557.601H612.604L526.921 442.193L356.015 384.72H355.771L270.251 269.312L99.4805 211.757H99.2636L13.5532 96.4307L0 91.8762V90.7103L14.6646 95.6715L100.321 210.917ZM228.426 297.262H228.67L314.217 412.535L485.123 470.062H485.34L570.861 585.335L741.631 642.889H741.875L827.667 758.351L998.437 815.771H998.654L1084.2 931.016L1199.02 969.946H1195.58L1083.23 931.992H1082.98L997.515 816.774L826.609 759.219H826.393L740.926 643.892L570.156 586.338H569.912L484.364 471.092L313.594 413.538H313.35L227.477 298.13L56.7066 240.575H56.4897L0.189744 164.667V162.417L57.4926 239.735L228.426 297.262ZM100.267 38.0354L185.841 153.281L356.612 210.835H356.856L442.403 326.08L613.526 383.717H613.743L699.318 498.962L870.088 556.517H870.305L955.88 671.924L1126.65 729.479H1126.89L1212.58 844.805L1383.35 902.36H1383.59L1433.71 969.892H1432.14L1382.53 903.201L1211.63 845.592H1211.41L1125.84 730.319L955.067 672.765H954.823L869.275 557.52L698.505 499.965H698.261L612.713 384.693L441.807 327.138H441.59L356.015 211.866L185.245 154.338H185.001L99.1281 38.7946L0.054214 5.44916V4.28345L100.05 37.9542L100.267 38.0354ZM249.785 282.867H250.002L335.577 398.275L506.347 455.829H506.564L592.139 571.075L762.909 628.629H763.153L848.701 743.874L1019.61 801.429H1019.82L1105.4 916.674L1263.08 969.783H1259.63L1104.69 917.677H1104.45L1018.9 802.215L847.996 744.796H847.779L762.205 629.47L591.434 571.915H591.217L505.643 456.643L334.872 399.115H334.628L248.864 283.707L78.0935 226.18H77.8767L0.189744 121.535V119.04L78.8796 225.312L249.785 282.867ZM143.068 354.898L228.615 470.225L399.386 527.78H399.629L485.177 643.025L656.083 700.58H656.3L741.875 815.825L912.645 873.38H912.889L984.612 969.946H982.878L911.94 874.383L741.17 816.828H740.926L655.27 701.501L484.364 643.947H484.147L398.599 528.674L227.694 471.092H227.477L141.875 355.739L0.027107 307.971V306.805L142.824 354.898H143.068ZM78.8796 52.4308L164.454 167.703L335.225 225.231H335.469L421.071 340.584L591.841 398.112H592.085L677.633 513.357L848.403 570.912H848.62L934.195 686.157L1104.96 743.712H1105.18L1191.16 859.147L1361.93 916.702H1362.18L1401.59 969.81H1399.88L1361.12 917.596L1190.35 860.068H1190.13L1104.45 744.742L933.68 687.187H933.436L847.779 571.779L676.874 514.306H676.657L591.109 399.061L420.339 341.506H420.122L334.33 226.098L163.56 168.544H163.316L77.7411 53.2172L0.054214 27.0558V25.8901L78.6627 52.3768L78.8796 52.4308ZM36.1599 427.011L121.708 542.257L292.613 599.811H292.83L378.405 715.056L549.175 772.611H549.419L635.021 888.019L805.792 945.574H806.036L824.061 969.973H822.354L804.897 946.441L634.1 888.968H633.883L548.308 773.533L377.538 715.978H377.294L291.638 600.652L120.867 543.124H120.623L34.9672 427.798L0.054214 416.032V414.866L35.8889 426.93L36.1599 427.011ZM78.8796 743.956L164.454 859.147L335.225 916.702H335.469L374.99 969.946H373.255L334.33 917.596L163.56 860.068H163.316L77.7411 744.715L0.054214 718.554V717.415L78.6627 743.874L78.8796 743.956ZM121.653 715.138L207.228 830.383L377.999 887.938H378.243L439.042 969.864H437.334L377.185 888.805L206.415 831.25H206.171L120.515 715.924L0.054214 675.259V674.093L121.437 715.056L121.653 715.138ZM143.068 700.742L228.615 815.987L399.386 873.542H399.629L471.136 969.864H469.401L398.599 874.383L227.694 816.828H227.477L141.875 701.501L0.054214 653.733V652.568L142.824 700.661L143.068 700.742ZM100.267 729.56L185.841 844.805L356.612 902.36H356.856L406.975 969.892H405.241L355.798 903.201L184.92 845.592H184.676L99.1281 730.319L0.054214 696.947V695.781L100.05 729.479L100.267 729.56ZM164.454 686.184L250.002 801.592L420.908 859.147H421.071L503.284 969.892H501.55L419.986 859.987L249.216 802.432H248.999L163.289 687.106L0.054214 632.127V630.961L164.211 686.238L164.454 686.184ZM108.236 969.946H104.793L35.1841 946.496H34.9672L0.054214 899.405V897.101L36.1599 945.655L108.236 969.946ZM236.585 969.946H233.115L77.958 917.677H77.7411L0.054214 813.06V810.728L78.8796 916.837L236.585 969.946ZM172.397 969.946H168.981L56.5981 931.992H56.3813L0.0813184 856.083V853.725L57.4926 931.233L172.397 969.946ZM185.597 671.734H185.841L271.389 787.169L442.295 844.724H442.512L528.06 959.969L557.416 969.864H553.892L527.084 960.81H526.84L441.373 845.592L270.468 788.037H270.251L184.676 672.683L13.7972 615.156H13.5803L0.027107 596.938V594.606L14.6917 614.369L185.597 671.734ZM57.4926 758.351L143.068 873.624L313.838 931.151H314.055L342.787 969.864H341.08L312.916 931.91L142.146 874.464L141.875 874.383L56.3542 759.137L0.054214 740.16V738.995L57.2758 758.243L57.4926 758.351ZM249.785 628.711H250.002L335.577 743.956L506.347 801.511H506.564L592.139 916.756L749.817 969.864H746.374L591.326 917.677H591.109L505.534 802.215L334.764 744.661H334.52L248.864 629.47L77.958 571.779H77.7411L0.054214 467.107V464.803L78.8796 570.993L249.785 628.711ZM206.93 657.447H207.174L292.776 772.774L463.682 830.329H463.899L549.474 945.601L621.577 970H618.134L548.471 946.496H548.227L462.76 831.169L291.99 773.614H291.773L206.063 658.288L35.2925 600.733H35.0757L0.162639 553.724V551.393L36.1599 599.893L206.93 657.447ZM228.317 643.025H228.561L314.136 758.27L484.906 815.825H485.123L570.698 931.07L685.602 969.783H682.159L569.776 931.829H569.532L484.147 816.774L313.377 759.219H313.133L227.477 643.892L56.7066 586.338H56.4897L0.189744 510.429V508.098L57.4926 585.335L228.317 643.025ZM36.1599 772.774L121.653 888.019L292.559 945.574H292.776L310.802 969.973H309.094L291.638 946.441L120.759 888.968H120.515L34.9672 773.533L0.054214 761.794V760.629L35.8889 772.693L36.1599 772.774ZM100.267 902.523L271.172 959.969H271.389L278.735 969.864H277L270.251 960.755L99.4805 903.201H99.2636L13.5803 787.956L0.027107 783.401V782.235L14.6917 787.169L100.267 902.523ZM164.454 340.584L250.002 455.829L420.908 513.384H421.125L506.673 628.711L677.443 686.238H677.66L763.235 801.511L934.249 859.147H934.493L1016.68 969.892H1014.97L933.381 859.987L762.611 802.432H762.367L676.657 687.106L505.887 629.551H505.67L419.986 514.225L249.216 456.67H248.999L163.289 341.343L0.054214 286.364V285.198L164.211 340.503L164.454 340.584Z" fill="url(#paint0_linear_0_401)"/>
<defs>
<linearGradient id="paint0_linear_0_401" x1="711" y1="590" x2="720" y2="39.5" gradientUnits="userSpaceOnUse">
<stop stop-color="#F8CA54"/>
<stop offset="1" stop-color="#FACD59" stop-opacity="0"/>
</linearGradient>
</defs>
</svg>
