<svg width="1440" height="970" viewBox="0 0 1440 970" fill="none" xmlns="http://www.w3.org/2000/svg">
<path d="M1211.63 470.117H1211.41L1125.84 585.443L955.067 642.998H954.823L869.275 758.27L698.505 815.798H698.261L612.496 931.205L497.592 969.892H501.035L613.418 931.938H613.634L699.209 816.692L869.98 759.138H870.196L955.88 643.838L1126.65 586.283H1126.89L1212.58 470.957L1383.35 413.402H1383.59L1439.89 337.494V335.162L1382.53 412.562L1211.63 470.117ZM1190.24 455.694H1190.02L1104.45 570.939L933.68 628.494H933.436L847.888 743.739L676.982 801.294H676.765L591.217 916.539L433.54 969.648H436.982L592.112 917.379H592.356L677.904 802.107L848.674 744.579H848.891L934.466 629.307L1105.24 571.78H1105.45L1191.03 456.534L1361.8 398.98H1362.04L1439.73 294.335V291.949L1361.12 398.221L1190.24 455.694ZM1275.57 167.785L1190.02 282.894L1019.12 340.449H1018.9L933.381 455.775L762.611 513.33H762.367L676.657 628.657L505.887 686.211H505.67L419.986 801.538L249.081 859.093H248.864L166.65 969.892H168.385L250.002 859.933L420.908 802.378H421.125L506.673 687.133L677.443 629.578H677.66L763.235 514.333L934.005 456.778H934.249L1020.12 341.289L1190.89 283.762H1191.11L1276.66 168.489L1439.97 113.564V112.29L1275.82 167.568L1275.57 167.785ZM1296.96 182.18L1211.41 297.317L1040.51 354.844H1040.29L954.714 470.089L783.944 527.644H783.7L698.152 642.889L527.382 700.444H527.138L441.59 815.689L270.468 873.488H270.251L198.798 969.892H200.533L271.443 874.328L442.349 816.801H442.566L528.114 701.529L699.02 644.001H699.236L784.811 528.756L955.582 471.201H955.826L1041.37 355.956L1212.28 298.401H1212.5L1298.07 183.156L1439.92 135.388V133.897L1297.2 181.963L1296.96 182.18ZM1403.92 599.974L1318.29 715.084L1147.52 772.638H1147.28L1061.73 887.884L890.96 945.438H890.716L872.69 969.837H874.425L891.854 946.306L1062.6 888.914H1062.81L1148.39 773.669L1319.16 716.114H1319.4L1405.03 600.625L1439.95 588.859V587.693L1404.11 599.757L1403.92 599.974ZM1425.31 614.397L1339.73 729.506L1168.96 787.061H1168.75L1083.06 902.469L912.293 959.996H912.049L904.73 969.892H906.275L913.052 960.783L1083.82 903.228H1084.04L1169.61 787.983L1340.38 730.428H1340.63L1426.45 615.102L1440 610.547V609.381L1425.55 614.261L1425.31 614.397ZM1254.4 499.043H1254.19L1168.64 614.315L997.732 671.843H997.515L911.94 787.088L741.17 844.643H740.926L655.27 959.996L625.941 969.892H629.383L656.191 960.864H656.408L741.983 845.538L912.753 787.983H912.997L998.545 672.738L1169.32 615.183H1169.56L1255.11 499.938L1426.01 442.383H1426.23L1439.78 424.165V421.861L1425.12 441.624L1254.4 499.043ZM1233.02 484.648H1232.8L1147.22 599.893L976.453 657.447H976.237L890.553 772.72L719.783 830.275H719.539L633.991 945.52L561.861 969.919H565.331L634.913 946.468H635.13L720.705 831.223L891.475 773.669H891.692L977.267 658.396L1148.04 600.869H1148.28L1233.83 485.596L1404.73 428.069H1404.95L1439.86 381.033V378.728L1403.81 427.283L1233.02 484.648ZM1382.53 239.681L1296.96 354.844L1126.19 412.399H1125.95L1040.29 527.807L869.383 585.28H869.166L783.591 700.525L612.821 758.08H612.604L527.03 873.325L356.259 930.88H356.015L327.31 969.566H328.909L357.072 931.612L527.843 874.057H528.06L613.526 759.083L784.296 701.529H784.54L870.088 586.283L1040.86 528.729H1041.08L1126.65 413.456L1297.42 355.929H1297.66L1383.67 240.44L1439.97 221.463V220.297L1382.75 239.572L1382.53 239.681ZM1425.31 268.499L1339.73 383.744L1168.96 441.299H1168.75L1083.17 556.544L912.401 614.098H912.157L826.393 729.506L655.622 787.061H655.405L569.695 902.469L398.925 959.996H398.708L391.254 969.892H392.988L399.738 960.783L570.508 903.228H570.752L656.3 787.983L827.206 730.428H827.423L913.106 615.102L1083.88 557.547H1084.09L1169.67 442.302L1340.44 384.747H1340.68L1426.45 269.258L1440 264.703V263.565L1425.55 268.417L1425.31 268.499ZM1403.92 254.076L1318.29 369.348L1147.52 426.876H1147.28L1061.73 542.121L890.96 599.676H890.716L805.168 714.921L634.398 772.476H634.181L548.606 887.721L377.836 945.276H377.592L359.566 969.675H361.301L378.758 946.143L549.528 888.616H549.772L635.32 773.37L806.09 715.815H806.334L891.882 600.57L1062.79 543.016H1063L1148.58 427.771L1319.35 370.216H1319.59L1405.03 254.862L1439.95 243.096V241.931L1404.11 254.022L1403.92 254.076ZM1318.29 196.467L1232.8 311.712L1062.03 369.267H1061.81L976.237 484.512L805.466 542.067H805.25L719.675 657.339L548.904 714.894H548.66L462.76 830.356L291.99 887.884H291.773L230.838 969.892H232.546L292.776 888.751L463.682 831.196H463.899L549.474 715.951L720.244 658.396H720.488L806.036 543.151L976.806 485.596H977.05L1062.6 370.351L1233.72 312.553H1233.94L1319.51 197.307L1439.97 156.642V155.477L1318.59 196.386L1318.29 196.467ZM1254.35 153.091H1254.13L1168.64 268.499L997.732 326.053H997.515L911.94 441.326L741.17 498.853H740.926L655.27 614.261L484.364 671.789H484.147L398.599 787.034L227.694 844.67H227.477L141.875 959.996L112.546 969.892H115.988L142.796 960.864H143.04L228.615 845.538L399.386 787.983H399.629L485.177 672.738L656.191 615.102H656.408L741.983 499.856L912.753 442.302H912.997L998.545 327.056L1169.32 269.502H1169.56L1255.11 154.257L1426.23 96.4578H1426.45L1440 78.2669V75.9354L1425.31 95.6174L1254.35 153.091ZM1339.68 210.781L1254.19 326.108L1083.42 383.662H1083.17L997.624 498.908L826.609 556.544H826.393L740.926 671.87L570.156 729.425H569.912L484.364 844.67L313.594 902.225H313.35L263.23 969.729H264.965L314.488 902.984L485.069 845.538H485.286L570.861 730.265L741.631 672.738H741.875L827.667 557.384L998.437 499.856H998.654L1084.2 384.665L1255.11 327.111H1255.32L1340.9 211.866L1439.97 178.493V177.327L1339.98 210.781H1339.68ZM1382.53 585.443L1296.96 700.688L1126.19 758.243H1125.95L1040.4 873.488L869.492 931.043H869.275L840.542 969.729H842.277L870.413 931.775L1041.18 874.22H1041.4L1126.98 758.975L1297.75 701.42H1297.99L1383.54 586.175L1439.84 567.198V566.032L1382.75 585.28L1382.53 585.443ZM1403.92 81.1948L1233.15 138.75H1232.93L1147.22 254.076L976.453 311.631H976.237L890.553 426.957L719.783 484.512H719.539L633.991 599.757L463.221 657.312H463.004L377.429 772.557L206.659 830.112H206.415L120.515 945.601L48.412 970H51.8545L121.437 946.55H121.653L207.228 831.305L377.999 773.75H378.243L463.79 658.478L634.561 600.95H634.777L720.352 485.678L891.123 428.15H891.339L976.914 312.878L1147.68 255.35H1147.93L1233.48 140.105L1404.84 82.0623H1405.06L1439.97 34.9449V32.6406L1403.92 81.1948ZM1361.12 225.285L1275.57 340.53L1104.69 398.221H1104.45L1018.9 513.493L847.996 570.939H847.779L762.205 686.211L591.434 743.739H591.217L505.534 859.093L334.764 916.647H334.52L294.999 969.892H296.734L335.577 917.569L506.347 860.014H506.564L592.139 744.769L762.909 687.214H763.153L848.918 571.725L1019.82 514.171H1020.04L1105.59 398.925L1276.49 341.289H1276.71L1362.29 226.044L1439.97 199.883V198.717L1361.36 225.204L1361.12 225.285ZM1318.29 887.965L1257.49 969.892H1259.23L1319.46 888.751L1439.92 848.086V846.947L1318.54 887.802L1318.29 887.965ZM1339.68 902.387L1289.59 969.892H1291.29L1340.84 903.147L1439.92 869.774V868.635L1339.98 902.306L1339.68 902.387ZM1275.52 859.011L1193.33 969.756H1195.04L1276.66 859.797L1439.97 804.872V803.707L1275.82 859.093L1275.52 859.011ZM1361.07 916.647L1321.65 969.756H1323.39L1362.23 917.433L1439.92 891.272V890.107L1361.31 916.566L1361.07 916.647ZM1254.35 844.534H1254.13L1168.58 959.78L1139.39 969.892H1142.83L1169.61 960.864H1169.86L1255.32 845.538L1426.23 787.983H1426.45L1440 769.765V767.46L1425.34 787.197L1254.35 844.534ZM1425.25 959.861L1417.91 969.756H1419.64L1426.39 960.647L1439.95 956.093V954.927L1425.5 959.78L1425.25 959.861ZM1403.87 945.465L1385.84 969.865H1387.55L1405.01 946.333L1439.92 934.594V933.428L1404.08 945.493L1403.87 945.465ZM1361.12 571.02L1275.57 686.293L1104.8 743.82H1104.56L1018.9 859.093L847.996 916.702H847.779L808.367 969.81H810.074L848.918 917.488L1019.82 859.933H1020.04L1105.59 744.688L1276.49 687.133H1276.71L1362.29 571.725L1439.97 545.564V544.615L1361.36 571.075L1361.12 571.02ZM1382.53 931.205L1353.8 969.892H1355.54L1383.67 931.938L1439.97 912.96V911.795L1382.75 931.07L1382.53 931.205ZM1233.02 830.275H1232.8L1147.22 945.52L1075.12 969.919H1078.56L1148.15 946.468H1148.39L1233.94 831.223L1404.84 773.669H1405.06L1439.97 726.633V724.301L1403.92 772.882L1233.02 830.275ZM1296.96 527.807L1211.41 643.052L1040.51 700.607H1040.29L954.714 815.852L783.944 873.407H783.7L712.22 969.729H713.82L784.757 874.166L955.527 816.638H955.771L1041.32 701.366L1212.22 643.838H1212.44L1298.02 528.593L1439.86 480.825V479.551L1297.09 527.617L1296.96 527.807ZM1339.73 556.625L1254.19 671.87L1083.42 729.425H1083.17L997.624 844.67L826.718 902.225H826.501L776.164 969.892H777.899L827.667 903.147L998.437 845.538H998.654L1084.2 730.265L1255.11 672.738H1255.32L1340.9 557.465L1439.97 524.12V522.927L1339.98 556.544L1339.73 556.625ZM1318.29 542.202L1232.74 657.475L1061.97 715.029H1061.76L976.128 830.356L805.358 887.884H805.141L744.179 969.892H745.914L806.144 888.751L976.914 831.196H977.158L1062.71 715.951L1233.61 658.396H1233.83L1319.4 543.151L1439.86 502.486V501.239L1318.48 542.121L1318.29 542.202ZM1275.52 513.411L1190.02 628.657L1019.12 686.211H1018.9L933.381 801.538L762.611 859.093H762.367L680.181 969.837H681.915L763.533 859.879L934.303 802.324H934.547L1020.12 687.052L1190.89 629.497H1191.11L1276.66 514.252L1439.92 459.273V458.134L1275.76 513.411H1275.52ZM1211.63 815.852H1211.41L1125.84 931.205L1010.96 969.892H1014.4L1126.76 931.938H1127L1212.58 816.719L1383.35 759.165H1383.59L1439.89 683.256V680.925L1382.53 758.324L1211.63 815.852ZM1190.24 801.456H1190.02L1104.45 916.702L946.935 969.892H950.377L1105.51 917.623H1105.72L1191.3 802.351L1362.07 744.823H1362.31L1440 640.178V637.847L1361.12 743.902L1190.24 801.456ZM1296.96 873.569L1225.45 969.892H1227.19L1298.12 874.328L1439.97 826.56V825.395L1297.2 873.488L1296.96 873.569ZM100.267 413.321L271.172 355.793H271.389L356.964 240.44L527.734 182.912H527.951L613.526 67.4771L784.296 9.9223H784.54L791.886 0.0271056H790.151L783.375 9.13611L612.604 66.6909H612.388L526.921 182.044L356.015 239.599H355.771L270.251 354.844L99.4805 412.399H99.2636L13.5803 527.807L0.027107 532.361V533.527L14.6917 528.593L100.267 413.321ZM57.4926 557.384L143.068 442.139L313.838 384.584H314.055L399.629 269.312L570.4 211.784H570.644L656.408 96.3765L827.314 38.8488H827.531L856.264 0.135549H854.529L826.393 38.0897L655.487 95.5361H655.27L569.695 210.863L398.925 268.417H398.708L313.133 383.662L142.363 441.217H142.119L56.3542 556.625L0.054214 575.602V576.768L57.2758 557.492L57.4926 557.384ZM206.93 658.315H207.174L292.776 542.989L463.682 485.434H463.899L549.474 370.189L720.244 312.634H720.488L806.036 197.389L976.806 139.834H977.05L1062.6 24.5618L1134.73 0.162654H1131.29L1061.68 23.6129H1061.46L976.128 138.831L805.358 196.386H805.141L719.431 311.712L548.66 369.267H548.416L462.869 484.512L292.098 542.067H291.882L206.063 657.475L35.2925 715.029H35.0757L0.162639 762.065V764.397L36.1599 715.87L206.93 658.315ZM185.543 643.92H185.787L271.335 528.674L442.241 471.12H442.458L528.005 355.875L698.911 298.32H699.128L784.703 183.075L955.473 125.52H955.717L1041.26 10.2747L1070.62 0.37954H1067.18L1040.34 9.43432H1040.13L954.714 124.408L783.944 181.936H783.7L698.044 297.317L527.165 354.844H526.921L441.373 470.089L270.468 527.726H270.251L184.676 643.052L13.9056 700.607H13.6887L0.135532 718.825V721.129L14.8001 701.366L185.543 643.92ZM44.075 0.0542215H40.6054L13.7972 9.109H13.5803L0.027107 27.327V29.6585L14.6917 9.89519L44.075 0.0542215ZM121.653 600.625L207.228 485.352L377.999 427.825H378.243L463.899 312.471L634.669 254.944H634.886L720.596 139.617L891.367 82.0623H891.583L952.41 0.135549H950.675L890.553 81.1948L719.783 138.75H719.539L633.883 254.076L463.113 311.631H462.896L377.185 426.957L206.415 484.512H206.171L120.515 599.839L0.054214 640.504V641.642L121.437 600.787L121.653 600.625ZM100.267 586.202L185.841 470.957L356.612 413.402H356.856L442.403 298.157L613.526 240.521H613.743L699.182 125.195L869.953 67.6397H870.169L920.289 0.108443H918.581L869.166 66.7993L698.288 124.408H698.044L612.496 239.681L441.59 297.235H441.373L355.798 412.48L185.028 470.035H184.784L99.1281 585.443L0.054214 618.788V619.954L100.05 586.283L100.267 586.202ZM78.8796 571.725L164.454 456.48L335.225 398.925H335.469L421.071 283.68L591.841 226.126H592.085L677.795 110.853L848.565 53.2985H848.782L888.222 0.18977H886.487L847.779 52.4039L676.874 109.932H676.657L591.109 225.285L420.339 282.813H420.122L334.33 398.221L163.56 455.694H163.316L77.7411 571.02L0.054214 597.182V598.347L78.6627 571.888L78.8796 571.725ZM57.4926 903.147L143.068 787.901L313.838 730.347H314.055L399.738 615.102L570.508 557.547H570.752L656.3 442.302L827.314 384.665H827.531L913.106 269.393L1083.88 211.866H1084.09L1169.78 96.3765L1340.55 38.8488H1340.79L1369.5 0.135549H1367.79L1339.62 38.0897L1168.85 95.5361H1168.64L1083.06 210.863L912.293 268.417H912.049L826.501 383.662L655.731 441.217H655.514L569.939 556.462L399.169 614.017H398.952L313.025 729.506L142.254 787.061H142.01L56.3542 902.469L0.054214 921.446V922.612L57.2758 903.336L57.4926 903.147ZM36.1599 888.751L121.708 773.506L292.559 715.951H292.776L378.351 600.706L549.121 543.151H549.365L634.913 427.906L805.683 370.351H805.927L891.475 255.106L1062.38 197.551H1062.6L1148.39 81.981L1319.16 24.4262H1319.4L1337.43 0.0271056H1335.69L1318.29 23.5858L1147.52 81.0321H1147.28L1061.68 196.467L890.906 254.022H890.662L805.114 369.294L634.344 426.822H634.127L548.552 542.067L377.782 599.622H377.538L291.638 715.084L120.867 772.638H120.623L34.9672 887.965L0.054214 899.758V900.923L35.8889 888.914L36.1599 888.751ZM100.321 759.083L271.172 701.529H271.389L356.964 586.283L527.734 528.729H527.951L613.526 413.321L784.296 355.793H784.54L870.305 240.44L1041.08 182.912H1041.29L1127 67.4771L1297.77 9.9223H1298.02L1305.34 0.0271056H1303.63L1296.85 9.13611L1126.08 66.6909H1125.84L1040.29 182.044L869.383 239.599H869.166L783.591 354.844L612.821 412.399H612.604L526.921 527.807L356.015 585.28H355.771L270.251 700.688L99.4805 758.243H99.2636L13.5532 873.569L0 878.124V879.29L14.6646 874.328L100.321 759.083ZM228.426 672.738H228.67L314.217 557.465L485.123 499.938H485.34L570.861 384.665L741.631 327.111H741.875L827.667 211.649L998.437 154.229H998.654L1084.2 38.9843L1199.02 0.0542215H1195.58L1083.23 38.0084H1082.98L997.515 153.226L826.609 210.781H826.393L740.926 326.108L570.156 383.662H569.912L484.364 498.908L313.594 556.462H313.35L227.477 671.87L56.7066 729.425H56.4897L0.189744 805.333V807.583L57.4926 730.265L228.426 672.738ZM100.267 931.965L185.841 816.719L356.612 759.165H356.856L442.403 643.92L613.526 586.283H613.743L699.318 471.038L870.088 413.483H870.305L955.88 298.076L1126.65 240.521H1126.89L1212.58 125.195L1383.35 67.6397H1383.59L1433.71 0.108443H1432.14L1382.53 66.7993L1211.63 124.408H1211.41L1125.84 239.681L955.067 297.235H954.823L869.275 412.48L698.505 470.035H698.261L612.713 585.307L441.807 642.862H441.59L356.015 758.134L185.245 815.662H185.001L99.1281 931.205L0.054214 964.551V965.717L100.05 932.046L100.267 931.965ZM249.785 687.133H250.002L335.577 571.725L506.347 514.171H506.564L592.139 398.925L762.909 341.371H763.153L848.701 226.126L1019.61 168.571H1019.82L1105.4 53.3256L1263.08 0.216876H1259.63L1104.69 52.3225H1104.45L1018.9 167.785L847.996 225.204H847.779L762.205 340.53L591.434 398.085H591.217L505.643 513.357L334.872 570.885H334.628L248.864 686.293L78.0935 743.82H77.8767L0.189744 848.465V850.96L78.8796 744.688L249.785 687.133ZM143.068 615.102L228.615 499.775L399.386 442.22H399.629L485.177 326.975L656.083 269.42H656.3L741.875 154.175L912.645 96.6205H912.889L984.612 0.0542215H982.878L911.94 95.6174L741.17 153.172H740.926L655.27 268.499L484.364 326.053H484.147L398.599 441.326L227.694 498.908H227.477L141.875 614.261L0.027107 662.029V663.195L142.824 615.102H143.068ZM78.8796 917.569L164.454 802.297L335.225 744.769H335.469L421.071 629.416L591.841 571.888H592.085L677.633 456.643L848.403 399.088H848.62L934.195 283.843L1104.96 226.288H1105.18L1191.16 110.853L1361.93 53.2985H1362.18L1401.59 0.18977H1399.88L1361.12 52.4039L1190.35 109.932H1190.13L1104.45 225.258L933.68 282.813H933.436L847.779 398.221L676.874 455.694H676.657L591.109 570.939L420.339 628.494H420.122L334.33 743.902L163.56 801.456H163.316L77.7411 916.783L0.054214 942.944V944.11L78.6627 917.623L78.8796 917.569ZM36.1599 542.989L121.708 427.743L292.613 370.189H292.83L378.405 254.944L549.175 197.389H549.419L635.021 81.981L805.792 24.4262H806.036L824.061 0.0271056H822.354L804.897 23.5587L634.1 81.0321H633.883L548.308 196.467L377.538 254.022H377.294L291.638 369.348L120.867 426.876H120.623L34.9672 542.202L0.054214 553.968V555.134L35.8889 543.07L36.1599 542.989ZM78.8796 226.044L164.454 110.853L335.225 53.2985H335.469L374.99 0.0542215H373.255L334.33 52.4039L163.56 109.932H163.316L77.7411 225.285L0.054214 251.446V252.585L78.6627 226.126L78.8796 226.044ZM121.653 254.862L207.228 139.617L377.999 82.0623H378.243L439.042 0.135549H437.334L377.185 81.1948L206.415 138.75H206.171L120.515 254.076L0.054214 294.741V295.907L121.437 254.944L121.653 254.862ZM143.068 269.258L228.615 154.013L399.386 96.4578H399.629L471.136 0.135549H469.401L398.599 95.6174L227.694 153.172H227.477L141.875 268.499L0.054214 316.267V317.432L142.824 269.339L143.068 269.258ZM100.267 240.44L185.841 125.195L356.612 67.6397H356.856L406.975 0.108443H405.241L355.798 66.7993L184.92 124.408H184.676L99.1281 239.681L0.054214 273.053V274.219L100.05 240.521L100.267 240.44ZM164.454 283.816L250.002 168.408L420.908 110.853H421.071L503.284 0.108443H501.55L419.986 110.013L249.216 167.568H248.999L163.289 282.894L0.054214 337.873V339.039L164.211 283.762L164.454 283.816ZM108.236 0.0542215H104.793L35.1841 23.5045H34.9672L0.054214 70.5947V72.8991L36.1599 24.3449L108.236 0.0542215ZM236.585 0.0542215H233.115L77.958 52.3225H77.7411L0.054214 156.94V159.272L78.8796 53.1629L236.585 0.0542215ZM172.397 0.0542215H168.981L56.5981 38.0084H56.3813L0.0813184 113.917V116.275L57.4926 38.7675L172.397 0.0542215ZM185.597 298.266H185.841L271.389 182.831L442.295 125.276H442.512L528.06 10.0307L557.416 0.135549H553.892L527.084 9.19033H526.84L441.373 124.408L270.468 181.963H270.251L184.676 297.317L13.7972 354.844H13.5803L0.027107 373.062V375.394L14.6917 355.631L185.597 298.266ZM57.4926 211.649L143.068 96.3765L313.838 38.8488H314.055L342.787 0.135549H341.08L312.916 38.0897L142.146 95.5361L141.875 95.6174L56.3542 210.863L0.054214 229.84V231.005L57.2758 211.757L57.4926 211.649ZM249.785 341.289H250.002L335.577 226.044L506.347 168.489H506.564L592.139 53.2443L749.817 0.135549H746.374L591.326 52.3225H591.109L505.534 167.785L334.764 225.339H334.52L248.864 340.53L77.958 398.221H77.7411L0.054214 502.893V505.197L78.8796 399.007L249.785 341.289ZM206.93 312.553H207.174L292.776 197.226L463.682 139.671H463.899L549.474 24.3991L621.577 0H618.134L548.471 23.5045H548.227L462.76 138.831L291.99 196.386H291.773L206.063 311.712L35.2925 369.267H35.0757L0.162639 416.276V418.607L36.1599 370.107L206.93 312.553ZM228.317 326.975H228.561L314.136 211.73L484.906 154.175H485.123L570.698 38.9301L685.602 0.216876H682.159L569.776 38.171H569.532L484.147 153.226L313.377 210.781H313.133L227.477 326.108L56.7066 383.662H56.4897L0.189744 459.571V461.902L57.4926 384.665L228.317 326.975ZM36.1599 197.226L121.653 81.981L292.559 24.4262H292.776L310.802 0.0271056H309.094L291.638 23.5587L120.759 81.0321H120.515L34.9672 196.467L0.054214 208.206V209.371L35.8889 197.307L36.1599 197.226ZM100.267 67.4771L271.172 10.0307H271.389L278.735 0.135549H277L270.251 9.24455L99.4805 66.7993H99.2636L13.5803 182.044L0.027107 186.599V187.765L14.6917 182.831L100.267 67.4771ZM164.454 629.416L250.002 514.171L420.908 456.616H421.125L506.673 341.289L677.443 283.762H677.66L763.235 168.489L934.249 110.853H934.493L1016.68 0.108443H1014.97L933.381 110.013L762.611 167.568H762.367L676.657 282.894L505.887 340.449H505.67L419.986 455.775L249.216 513.33H248.999L163.289 628.657L0.054214 683.636V684.802L164.211 629.497L164.454 629.416Z" fill="url(#paint0_linear_0_400)"/>
<defs>
<linearGradient id="paint0_linear_0_400" x1="711" y1="380" x2="720" y2="930.5" gradientUnits="userSpaceOnUse">
<stop stop-color="#F8CA54"/>
<stop offset="1" stop-color="#FACD59" stop-opacity="0"/>
</linearGradient>
</defs>
</svg>
