<?xml version="1.0" standalone="no"?>
<!DOCTYPE svg PUBLIC "-//W3C//DTD SVG 20010904//EN"
 "http://www.w3.org/TR/2001/REC-SVG-20010904/DTD/svg10.dtd">
<svg version="1.0" xmlns="http://www.w3.org/2000/svg"
 width="177.000000pt" height="177.000000pt" viewBox="0 0 177.000000 177.000000"
 preserveAspectRatio="xMidYMid meet">
<metadata>
Created by potrace 1.14, written by Peter Selinger 2001-2017
</metadata>
<g transform="translate(0.000000,177.000000) scale(0.100000,-0.100000)"
fill="#000000" stroke="none">
<path d="M900 1759 c-41 -3 -90 -9 -107 -13 -18 -4 -36 -8 -40 -8 -5 0 -39
-12 -78 -25 -332 -119 -511 -341 -569 -703 -56 -348 70 -641 362 -842 158
-108 310 -159 477 -160 120 -1 175 6 279 39 161 51 294 139 408 273 63 73 65
114 8 153 -22 15 -60 17 -338 17 -350 0 -352 0 -388 69 -10 20 -33 59 -51 88
-18 29 -33 54 -33 56 0 3 -19 36 -42 73 -60 98 -58 111 42 279 115 194 122
205 145 210 11 3 164 7 340 9 l319 4 23 27 c38 44 31 81 -29 151 -61 70 -164
154 -246 201 -76 44 -231 92 -317 99 -38 3 -74 6 -80 8 -5 1 -44 -1 -85 -5z"/>
</g>
</svg>
