<svg width="19" height="15" viewBox="0 0 19 15" fill="none" xmlns="http://www.w3.org/2000/svg">
<path d="M0 12.2729V5.01565C0 4.90415 0.117347 4.83162 0.217082 4.88149L8.15836 8.85213C9.00294 9.27442 9.99706 9.27442 10.8416 8.85213L18.7829 4.88149C18.8827 4.83162 19 4.90415 19 5.01565V12.2729C19 13.3775 18.1046 14.2729 17 14.2729H2C0.895431 14.2729 0 13.3775 0 12.2729Z" fill="#FFC83A"/>
<path d="M0 2.45481V3.69053C0 3.74877 0.0337119 3.80174 0.0864706 3.82641L8.22941 7.6335C9.03464 8.00997 9.96536 8.00997 10.7706 7.6335L18.9135 3.82641C18.9663 3.80174 19 3.74877 19 3.69053V2.45481C19 1.35024 18.1046 0.454812 17 0.454812H2C0.895431 0.454812 0 1.35024 0 2.45481Z" fill="#3C3E42"/>
</svg>
