<svg width="22" height="22" viewBox="0 0 22 22" fill="none" xmlns="http://www.w3.org/2000/svg">
<path d="M3.67962 1.20927L4.18178 0.707107C4.57231 0.316583 5.20547 0.316582 5.59599 0.707106L9.07067 4.18178C9.46119 4.57231 9.4612 5.20547 9.07067 5.59599L7.66547 7.0012C7.46712 7.19955 7.41795 7.50256 7.54339 7.75345C8.99376 10.6542 11.3458 13.0062 14.2465 14.4566C14.4974 14.5821 14.8005 14.5329 14.9988 14.3345L16.404 12.9293C16.7945 12.5388 17.4277 12.5388 17.8182 12.9293L21.2929 16.404C21.6834 16.7945 21.6834 17.4277 21.2929 17.8182L20.7907 18.3204C18.6794 20.4317 15.3368 20.6693 12.9481 18.8777L9.9619 16.6381C8.21837 15.3304 6.66955 13.7816 5.36191 12.0381L3.12226 9.05191C1.33072 6.66318 1.56827 3.32062 3.67962 1.20927Z" fill="#FFC83A"/>
<path fill-rule="evenodd" clip-rule="evenodd" d="M20.1208 18.8988C20.3548 18.725 20.5787 18.5323 20.7903 18.3207L21.2924 17.8186C21.6829 17.428 21.6829 16.7949 21.2924 16.4043L17.8177 12.9297C17.4272 12.5391 16.794 12.5391 16.4035 12.9297L15.2776 14.0556L20.1208 18.8988ZM7.94426 6.72226L9.07019 5.59633C9.46071 5.20581 9.46071 4.57264 9.07019 4.18212L5.59551 0.707444C5.21193 0.323858 4.59425 0.317043 4.20234 0.686998L3.62875 1.2606C3.43689 1.45702 3.26097 1.66376 3.1011 1.87911L7.94426 6.72226Z" fill="#3C3E42"/>
</svg>
