<svg width="119" height="100" viewBox="0 0 119 100" fill="none" xmlns="http://www.w3.org/2000/svg">
<rect x="7.33984" y="0.5" width="104.319" height="99" rx="3.5" fill="#FFC83A" stroke="#3C3E42"/>
<circle cx="61.0957" cy="61.7022" r="26.0957" fill="#FFC83A" stroke="#3C3E42"/>
<mask id="path-3-inside-1_2_373" fill="white">
<path d="M61.0957 35.1064C68.1494 35.1064 74.9141 37.9085 79.9018 42.8962C84.8894 47.8838 87.6915 54.6486 87.6915 61.7022C87.6915 68.7558 84.8894 75.5205 79.9018 80.5082C74.9141 85.4959 68.1494 88.2979 61.0958 88.2979L61.0958 83.701C66.9302 83.701 72.5257 81.3833 76.6513 77.2577C80.7768 73.1321 83.0946 67.5366 83.0946 61.7022C83.0946 55.8677 80.7768 50.2723 76.6512 46.1467C72.5257 42.0211 66.9302 39.7034 61.0957 39.7034L61.0957 35.1064Z"/>
</mask>
<path d="M61.0957 35.1064C68.1494 35.1064 74.9141 37.9085 79.9018 42.8962C84.8894 47.8838 87.6915 54.6486 87.6915 61.7022C87.6915 68.7558 84.8894 75.5205 79.9018 80.5082C74.9141 85.4959 68.1494 88.2979 61.0958 88.2979L61.0958 83.701C66.9302 83.701 72.5257 81.3833 76.6513 77.2577C80.7768 73.1321 83.0946 67.5366 83.0946 61.7022C83.0946 55.8677 80.7768 50.2723 76.6512 46.1467C72.5257 42.0211 66.9302 39.7034 61.0957 39.7034L61.0957 35.1064Z" fill="#3C3E42" stroke="#3C3E42" stroke-width="2" mask="url(#path-3-inside-1_2_373)"/>
<path d="M46.8619 62.5559L46.5936 62.923L46.9338 63.2248L58.8275 73.7783L59.2097 74.1173L59.5404 73.728L76.3701 53.9199L76.6755 53.5605L76.3344 53.2346L72.57 49.6385L72.1881 49.2737L71.8447 49.6749L58.5821 65.1722L50.6912 58.2384L50.2802 57.8773L49.9574 58.3191L46.8619 62.5559Z" fill="white" stroke="#3C3E42"/>
<rect x="0.957031" y="0.5" width="117.085" height="20.2766" rx="0.5" fill="#FFC83A" stroke="#3C3E42"/>
<rect x="6.96582" y="20.2461" width="105.068" height="7.43843" fill="#3C3E42"/>
</svg>
