<svg width="146" height="160" viewBox="0 0 146 160" fill="none" xmlns="http://www.w3.org/2000/svg">
<path d="M73.0003 1.15918C62.0059 11.4921 33.8083 21.8251 1.00049 43.824C1.00049 43.824 3.06322 118.221 73.0003 158.84V1.15918Z" fill="#FFC83A" stroke="#3C3E42" stroke-linecap="round" stroke-linejoin="round"/>
<path d="M73 1.15918C84.0031 11.4921 112.186 21.8251 145 43.824C145 43.824 142.937 118.221 73 158.84V1.15918Z" fill="#3C3E42" stroke="#3C3E42" stroke-linecap="round" stroke-linejoin="round"/>
<path d="M72.9954 7.17749C59.5959 16.4547 36.4429 25.2857 5.80078 45.7704C5.80078 45.7704 7.72239 114.986 72.9954 152.822C138.279 114.986 140.2 45.7704 140.2 45.7704C109.558 25.2857 86.4779 16.4547 72.9954 7.17749Z" fill="#3C3E42" stroke="#3C3E42" stroke-linecap="round" stroke-linejoin="round"/>
<path d="M140.2 45.7704C109.56 25.2961 86.4815 16.4547 73 7.17749V152.822C138.278 114.986 140.2 45.7704 140.2 45.7704Z" fill="#FFC83A" stroke="#3C3E42" stroke-linecap="round" stroke-linejoin="round"/>
<path opacity="0.2" d="M73.5 118C96.9721 118 116 98.9721 116 75.5C116 52.0279 96.9721 33 73.5 33C50.0279 33 31 52.0279 31 75.5C31 98.9721 50.0279 118 73.5 118Z" fill="#263238"/>
<path d="M73.4993 114.664C95.1295 114.664 112.664 97.1297 112.664 75.4996C112.664 53.8694 95.1295 36.3347 73.4993 36.3347C51.8692 36.3347 34.3345 53.8694 34.3345 75.4996C34.3345 97.1297 51.8692 114.664 73.4993 114.664Z" fill="white" stroke="#263238" stroke-miterlimit="10"/>
<g opacity="0.2">
<path opacity="0.2" d="M73.5009 76.781C73.3301 76.7821 73.1608 76.7488 73.0031 76.6831C72.8454 76.6174 72.7025 76.5206 72.583 76.3986L47.9481 51.0982C47.7232 50.8525 47.6027 50.5289 47.6124 50.196C47.622 49.863 47.7609 49.5469 47.9996 49.3146C48.2384 49.0823 48.5582 48.9521 48.8913 48.9517C49.2244 48.9512 49.5446 49.0805 49.784 49.3121L74.4227 74.5933C74.5988 74.7738 74.7178 75.0022 74.7647 75.25C74.8116 75.4978 74.7843 75.7539 74.6863 75.9862C74.5883 76.2186 74.4239 76.4169 74.2137 76.5562C74.0036 76.6955 73.7569 76.7698 73.5047 76.7696L73.5009 76.781Z" fill="#263238"/>
</g>
<path opacity="0.2" d="M62.4499 84.1741C62.1742 84.1754 61.9055 84.0878 61.6836 83.9242C61.4617 83.7606 61.2985 83.5299 61.2182 83.2662C61.1379 83.0025 61.1447 82.7199 61.2378 82.4604C61.3308 82.2009 61.5051 81.9783 61.7347 81.8258L72.788 74.4326C73.0706 74.2537 73.4119 74.1924 73.739 74.2617C74.0661 74.331 74.3532 74.5255 74.539 74.8036C74.7247 75.0816 74.7943 75.4213 74.733 75.7501C74.6717 76.0788 74.4843 76.3705 74.2108 76.563L63.1613 83.9561C62.9508 84.0973 62.7033 84.1732 62.4499 84.1741Z" fill="#263238"/>
<path d="M75.0876 75.4995C75.0883 75.1854 74.9959 74.8782 74.8219 74.6167C74.648 74.3551 74.4004 74.1511 74.1104 74.0304C73.8204 73.9096 73.5012 73.8777 73.193 73.9385C72.8849 73.9993 72.6017 74.1502 72.3793 74.372C72.157 74.5938 72.0054 74.8766 71.9439 75.1846C71.8823 75.4926 71.9135 75.812 72.0335 76.1022C72.1536 76.3925 72.357 76.6406 72.6181 76.8152C72.8792 76.9898 73.1862 77.0829 73.5003 77.0829C73.9206 77.0829 74.3238 76.9162 74.6213 76.6194C74.9189 76.3226 75.0866 75.9198 75.0876 75.4995Z" fill="#263238" stroke="#263238" stroke-miterlimit="10" stroke-linecap="round"/>
<path d="M73.5308 39.8389V45.1322" stroke="#263238" stroke-width="2" stroke-miterlimit="10" stroke-linecap="round"/>
<path d="M73.5308 105.455V110.748" stroke="#263238" stroke-width="2" stroke-miterlimit="10" stroke-linecap="round"/>
<path d="M108.986 75.293H103.688" stroke="#263238" stroke-width="2" stroke-miterlimit="10" stroke-linecap="round"/>
<path d="M43.3691 75.293H38.0757" stroke="#263238" stroke-width="2" stroke-miterlimit="10" stroke-linecap="round"/>
<path d="M92.1224 45.106L89.3457 49.6153" stroke="#263238" stroke-width="2" stroke-miterlimit="10" stroke-linecap="round"/>
<path d="M57.7118 100.972L54.9351 105.482" stroke="#263238" stroke-width="2" stroke-miterlimit="10" stroke-linecap="round"/>
<path d="M104.721 58.438L100.062 60.9546" stroke="#263238" stroke-width="2" stroke-miterlimit="10" stroke-linecap="round"/>
<path d="M46.9949 89.6323L42.3364 92.149" stroke="#263238" stroke-width="2" stroke-miterlimit="10" stroke-linecap="round"/>
<path d="M103.718 93.8894L99.209 91.1089" stroke="#263238" stroke-width="2" stroke-miterlimit="10" stroke-linecap="round"/>
<path d="M47.8511 59.4781L43.3418 56.7014" stroke="#263238" stroke-width="2" stroke-miterlimit="10" stroke-linecap="round"/>
<path d="M90.3858 106.488L87.8691 101.826" stroke="#263238" stroke-width="2" stroke-miterlimit="10" stroke-linecap="round"/>
<path d="M59.1914 48.7615L56.6748 44.103" stroke="#263238" stroke-width="2" stroke-miterlimit="10" stroke-linecap="round"/>
</svg>
