<svg width="49" height="29" viewBox="0 0 49 29" fill="none" xmlns="http://www.w3.org/2000/svg">
<path d="M48.1012 28.1307L48.082 0.835938L0.692013 0.868865L0.711159 28.1637L48.1012 28.1307Z" fill="#FFC83A" stroke="#3C3E42" stroke-linecap="round" stroke-linejoin="round"/>
<path d="M44.4972 3.35156L5.08033 3.37348C5.08113 3.64024 5.00305 3.90208 4.8546 4.1304C4.70614 4.35872 4.49303 4.54475 4.23854 4.66817C3.98405 4.79159 3.69797 4.84765 3.41152 4.83023C3.12507 4.81282 2.84928 4.7226 2.61426 4.56943V24.4592C2.84852 24.3051 3.12389 24.214 3.41019 24.1957C3.69649 24.1775 3.98267 24.2329 4.23737 24.3557C4.49207 24.4786 4.70545 24.6643 4.85414 24.8923C5.00283 25.1204 5.08109 25.3822 5.08033 25.6489L44.4972 25.6269C44.4972 25.2405 44.6622 24.8699 44.9558 24.5964C45.2495 24.3229 45.648 24.1688 46.0638 24.168V4.80737C45.6486 4.80654 45.2506 4.65289 44.957 4.38006C44.6634 4.10722 44.4981 3.73741 44.4972 3.35156Z" fill="#FFC83A" stroke="#3C3E42" stroke-miterlimit="10"/>
<path d="M25.2082 21.4925C29.0702 20.7265 31.577 16.9898 30.8074 13.1462C30.0378 9.3026 26.2833 6.80768 22.4213 7.57361C18.5594 8.33954 16.0526 12.0763 16.8222 15.9199C17.5918 19.7635 21.3463 22.2584 25.2082 21.4925Z" fill="#3C3E42"/>
<path d="M22.6214 18.8918V10.7837H24.7765C25.7777 10.7837 26.519 10.9843 27.0004 11.3856C27.4896 11.7868 27.7341 12.3697 27.7341 13.1344C27.7341 13.6492 27.6157 14.092 27.3787 14.463C27.1418 14.8264 26.7903 15.1065 26.3241 15.3033C25.8656 15.5002 25.2962 15.5986 24.616 15.5986H23.6531V18.8918H22.6214ZM21.624 17.3474V16.6093H25.5446V17.3474H21.624ZM21.624 15.5986V14.7355H24.2492V15.5986H21.624ZM24.467 14.7355C24.9332 14.7355 25.3268 14.6863 25.6477 14.5879C25.9764 14.4895 26.2286 14.3267 26.4043 14.0996C26.5801 13.8725 26.668 13.5621 26.668 13.1684C26.668 12.6536 26.5075 12.2713 26.1865 12.0215C25.8656 11.7717 25.365 11.6467 24.6848 11.6467H23.6531V14.7355H24.467Z" fill="white"/>
</svg>
