<svg width="54" height="54" viewBox="0 0 54 54" fill="none" xmlns="http://www.w3.org/2000/svg">
<path d="M27 54C41.9117 54 54 41.9117 54 27C54 12.0883 41.9117 0 27 0C12.0883 0 0 12.0883 0 27C0 41.9117 12.0883 54 27 54Z" fill="#405D99"/>
<path fill-rule="evenodd" clip-rule="evenodd" d="M33.4903 26.5116H29.5696C29.5696 33.006 29.5696 41.0001 29.5696 41.0001H23.7598C23.7598 41.0001 23.7598 33.0835 23.7598 26.5116H20.998V21.3909H23.7598V18.0788C23.7598 15.7067 24.8469 12 29.623 12L33.9281 12.0171V16.9878C33.9281 16.9878 31.312 16.9878 30.8033 16.9878C30.2946 16.9878 29.5715 17.2515 29.5715 18.3828V21.3919H33.9981L33.4903 26.5116Z" fill="white"/>
</svg>
