<svg width="71" height="46" viewBox="0 0 71 46" fill="none" xmlns="http://www.w3.org/2000/svg">
<path d="M16.4806 0C7.39093 0 0 7.39093 0 16.4806C0 24.5561 5.79358 31.3639 13.6536 32.7204C14.0846 38.5267 9.29255 43.4201 9.24184 43.4708C8.83616 43.8892 8.74741 44.5104 9.03899 45.0048C9.27987 45.4105 9.69822 45.6387 10.1419 45.6387C10.2434 45.6387 10.3574 45.626 10.4715 45.588C33.481 39.1986 32.9993 17.6343 32.9613 16.4553C32.9359 7.37825 25.5577 0 16.4806 0Z" fill="#FFC83A"/>
<path d="M70.9935 16.4553C70.9681 7.37825 63.5899 0 54.5129 0C45.4232 0 38.0322 7.39093 38.0322 16.4806C38.0322 24.5561 43.8258 31.3639 51.6858 32.7204C52.1168 38.5267 47.3248 43.4201 47.2741 43.4708C46.8684 43.8892 46.7796 44.5104 47.0712 45.0048C47.3121 45.4105 47.7304 45.6387 48.1742 45.6387C48.2756 45.6387 48.3897 45.626 48.5038 45.588C71.5133 39.1986 71.0315 17.6343 70.9935 16.4553Z" fill="#FFC83A"/>
</svg>
