<svg width="131" height="107" viewBox="0 0 131 107" fill="none" xmlns="http://www.w3.org/2000/svg">
<path d="M107.759 100.094L96.0562 81.248L72.5332 81.6702L83.8594 100.12C84.3114 100.855 84.484 101.728 84.3456 102.58C84.2072 103.432 83.7671 104.206 83.1055 104.76L80.4332 104.948H49.3154V105.623H104.695C105.341 105.625 105.976 105.454 106.533 105.127C107.09 104.8 107.549 104.329 107.862 103.764C108.175 103.199 108.331 102.561 108.313 101.915C108.295 101.269 108.104 100.64 107.759 100.094Z" fill="#263238" stroke="#263238" stroke-linecap="round" stroke-linejoin="round"/>
<path d="M94.7271 81.6362L106.43 100.482C106.772 101.028 106.96 101.656 106.977 102.3C106.993 102.944 106.837 103.581 106.524 104.144C106.212 104.707 105.754 105.176 105.198 105.503C104.643 105.829 104.01 106.001 103.366 106H79.4585C80.0999 106 80.7296 105.828 81.2828 105.504C81.836 105.179 82.2926 104.713 82.6055 104.153C82.9185 103.593 83.0765 102.96 83.0633 102.318C83.0501 101.677 82.8661 101.051 82.5303 100.504L71.2041 82.0546L94.7271 81.6362Z" fill="#FFC83A" stroke="#263238" stroke-linecap="round" stroke-linejoin="round"/>
<path d="M94.067 80.5737L70.5439 80.9921L74.901 88.0893H98.7332L94.067 80.5737Z" fill="#263238" stroke="#263238" stroke-linecap="round" stroke-linejoin="round"/>
<path d="M31.1262 85.4395L128.916 85.4395C129.522 85.4395 130.013 84.9484 130.013 84.3426V2.09679C130.013 1.49104 129.522 0.999977 128.916 0.999977L31.1262 0.999977C30.5205 0.999977 30.0294 1.49104 30.0294 2.09679L30.0294 84.3426C30.0294 84.9484 30.5205 85.4395 31.1262 85.4395Z" fill="#263238" stroke="#263238" stroke-linecap="round" stroke-linejoin="round"/>
<path d="M29.6639 85.4395L122.818 85.4395C124.704 85.4395 126.232 83.9106 126.232 82.0246L126.232 4.41479C126.232 2.52885 124.704 0.999977 122.818 0.999977L29.6639 0.999977C27.778 0.999977 26.2491 2.52885 26.2491 4.41479L26.2491 82.0246C26.2491 83.9106 27.778 85.4395 29.6639 85.4395Z" fill="white" stroke="#263238" stroke-linecap="round" stroke-linejoin="round"/>
<path d="M29.5132 1H122.987C123.852 1.001 124.682 1.34533 125.293 1.95735C125.904 2.56937 126.248 3.39903 126.248 4.26405V70.3178H26.2529V4.26405C26.2529 3.39903 26.5963 2.56937 27.2076 1.95735C27.8189 1.34533 28.6482 1.001 29.5132 1Z" fill="#263238" stroke="#263238" stroke-linecap="round" stroke-linejoin="round"/>
<path d="M30.4512 65.6929L122.033 65.6929L122.033 4.35807L30.4512 4.35807L30.4512 65.6929Z" fill="#FFC83A" stroke="#263238" stroke-linecap="round" stroke-linejoin="round"/>
<path d="M5.59823 101.756H2.68848V102.725H5.59823V101.756Z" fill="white" stroke="#263238" stroke-linecap="round" stroke-linejoin="round"/>
<path d="M9.47714 101.756H6.56738V102.725H9.47714V101.756Z" fill="white" stroke="#263238" stroke-linecap="round" stroke-linejoin="round"/>
<path d="M13.3512 101.756H10.4414V102.725H13.3512V101.756Z" fill="white" stroke="#263238" stroke-linecap="round" stroke-linejoin="round"/>
<path d="M17.2301 101.756H14.3203V102.725H17.2301V101.756Z" fill="white" stroke="#263238" stroke-linecap="round" stroke-linejoin="round"/>
<path d="M21.108 101.756H18.1982V102.725H21.108V101.756Z" fill="white" stroke="#263238" stroke-linecap="round" stroke-linejoin="round"/>
<path d="M24.9859 101.756H22.0762V102.725H24.9859V101.756Z" fill="white" stroke="#263238" stroke-linecap="round" stroke-linejoin="round"/>
<path d="M28.8648 101.756H25.9551V102.725H28.8648V101.756Z" fill="white" stroke="#263238" stroke-linecap="round" stroke-linejoin="round"/>
<path d="M32.7428 101.756H29.833V102.725H32.7428V101.756Z" fill="white" stroke="#263238" stroke-linecap="round" stroke-linejoin="round"/>
<path d="M36.6217 101.756H33.7119V102.725H36.6217V101.756Z" fill="white" stroke="#263238" stroke-linecap="round" stroke-linejoin="round"/>
<path d="M40.5006 101.756H37.5908V102.725H40.5006V101.756Z" fill="white" stroke="#263238" stroke-linecap="round" stroke-linejoin="round"/>
<path d="M44.3785 101.756H41.4688V102.725H44.3785V101.756Z" fill="white" stroke="#263238" stroke-linecap="round" stroke-linejoin="round"/>
<path d="M48.2574 101.756H45.3477V102.725H48.2574V101.756Z" fill="white" stroke="#263238" stroke-linecap="round" stroke-linejoin="round"/>
<path d="M52.1353 101.756H49.2256V102.725H52.1353V101.756Z" fill="white" stroke="#263238" stroke-linecap="round" stroke-linejoin="round"/>
<path d="M56.0133 101.756H53.1035V102.725H56.0133V101.756Z" fill="white" stroke="#263238" stroke-linecap="round" stroke-linejoin="round"/>
<path d="M59.8883 101.756H56.9785V102.725H59.8883V101.756Z" fill="white" stroke="#263238" stroke-linecap="round" stroke-linejoin="round"/>
<path d="M63.7672 101.756H60.8574V102.725H63.7672V101.756Z" fill="white" stroke="#263238" stroke-linecap="round" stroke-linejoin="round"/>
<path d="M67.6451 101.756H64.7354V102.725H67.6451V101.756Z" fill="white" stroke="#263238" stroke-linecap="round" stroke-linejoin="round"/>
<path d="M71.524 101.756H68.6143V102.725H71.524V101.756Z" fill="white" stroke="#263238" stroke-linecap="round" stroke-linejoin="round"/>
<path d="M75.4019 101.756H72.4922V102.725H75.4019V101.756Z" fill="white" stroke="#263238" stroke-linecap="round" stroke-linejoin="round"/>
<path d="M79.2809 101.756H76.3711V102.725H79.2809V101.756Z" fill="white" stroke="#263238" stroke-linecap="round" stroke-linejoin="round"/>
<path d="M83.1598 101.756H80.25V102.725H83.1598V101.756Z" fill="white" stroke="#263238" stroke-linecap="round" stroke-linejoin="round"/>
<path d="M85.2735 102.864H1.18457V106H85.2735V102.864Z" fill="#FFC83A" stroke="#263238" stroke-linecap="round" stroke-linejoin="round"/>
<path d="M85.2742 102.864H64.7627V106H85.2742V102.864Z" fill="#263238" stroke="#263238" stroke-linecap="round" stroke-linejoin="round"/>
<path d="M84.9634 18.5271L85.2934 17.9471C84.9234 17.4971 84.5234 17.0671 84.1234 16.6671C77.1234 13.4771 70.1734 15.6671 67.7234 16.6671C67.4734 16.9171 67.2234 17.1871 66.9834 17.4571L67.3634 18.2271C67.4634 18.1871 76.5934 13.7471 84.9634 18.5271Z" fill="#263238"/>
<path d="M89.0738 24.9069C88.7914 24.0182 88.4575 23.1467 88.0738 22.2969C84.8792 19.7522 80.9277 18.3448 76.8438 18.2969C71.5138 18.2969 66.2838 21.0469 63.6938 22.6469C63.3938 23.3135 63.1238 24.0035 62.8838 24.7169C63.7438 24.1069 70.3538 19.5769 76.8838 19.5769C81.4901 19.6805 85.87 21.5956 89.0738 24.9069Z" fill="#263238"/>
<path d="M64.5237 42.4872C64.5237 42.4172 61.2737 35.4872 65.4237 28.9872C66.4415 27.3423 67.7951 25.9309 69.396 24.8453C70.9969 23.7596 72.809 23.0242 74.7137 22.6872C78.2937 22.0372 81.3637 22.8172 82.7137 23.8172C84.6444 25.3895 86.3533 27.2161 87.7937 29.2472C88.5899 30.3548 89.4798 31.392 90.4537 32.3472C90.4537 31.6572 90.3637 30.9872 90.2837 30.3472C89.8137 29.7972 89.2837 29.1672 88.8037 28.4972C87.3001 26.371 85.5098 24.463 83.4837 22.8272C81.8737 21.6272 78.4837 20.7372 74.4837 21.4572C72.4053 21.8245 70.4278 22.6262 68.6805 23.8101C66.9332 24.9939 65.4554 26.5332 64.3437 28.3272C59.8137 35.4472 63.2237 42.7672 63.3437 43.0672L64.5237 42.4872Z" fill="#263238"/>
<path d="M88.9233 33.8972C88.3932 33.1936 87.9057 32.459 87.4633 31.6972C85.6033 28.6972 83.2833 24.8672 76.4633 24.8672C75.0559 24.8031 73.652 25.0545 72.3544 25.603C71.0567 26.1515 69.8981 26.9832 68.9633 28.0372C66.3833 31.0372 65.9633 35.3872 66.4233 38.4672C66.6327 39.7556 66.5073 41.0762 66.0589 42.3021C65.6106 43.528 64.8545 44.6179 63.8633 45.4672C64.0499 45.8539 64.2499 46.2339 64.4633 46.6072C65.6767 45.6287 66.6125 44.3494 67.1774 42.8966C67.7424 41.4439 67.9168 39.8684 67.6833 38.3272C67.2633 35.5272 67.6333 31.5972 69.9333 28.9272C70.7453 27.9966 71.757 27.2614 72.8929 26.7766C74.0288 26.2918 75.2596 26.0698 76.4933 26.1272C82.5633 26.1272 84.4933 29.2872 86.3633 32.3472C86.8366 33.1541 87.3575 33.9322 87.9233 34.6772C88.5784 35.5246 89.3939 36.2348 90.3233 36.7672C90.3233 36.2972 90.4133 35.7672 90.4333 35.3272C89.8655 34.9236 89.3572 34.4422 88.9233 33.8972Z" fill="#263238"/>
<path d="M84.2232 33.9869C83.958 33.4302 83.6608 32.8893 83.3332 32.3669C82.1232 30.5469 79.2732 26.2869 73.4532 28.6769C68.8832 30.5669 69.3132 35.3669 69.7032 39.5969C69.8132 40.8269 69.9232 41.9869 69.9232 43.0769C69.9232 46.0769 67.7632 48.1569 66.2832 49.2069C66.5632 49.5569 66.8432 49.8769 67.1332 50.2069C68.7832 48.9769 71.2232 46.6269 71.2232 43.1269C71.2232 41.9769 71.1132 40.7369 71.0032 39.5369C70.6232 35.3669 70.2632 31.4369 74.0032 29.9169C78.8532 27.9169 81.0032 31.1769 82.3332 33.1269C82.5632 33.4869 82.8332 34.0169 83.1432 34.6269C84.4407 37.639 86.5446 40.2344 89.2232 42.1269C89.3532 41.6969 89.4732 41.2569 89.5832 40.8169C87.2299 39.0482 85.3818 36.6931 84.2232 33.9869Z" fill="#263238"/>
<path d="M83.2232 39.4869C82.5506 38.7207 82.0403 37.826 81.7232 36.857C81.1559 35.1575 80.1151 33.6552 78.7232 32.527C78.2474 32.1167 77.6591 31.8592 77.0349 31.7878C76.4106 31.7165 75.7794 31.8347 75.2232 32.127C73.3732 33.127 72.2232 35.8969 72.4032 38.7369C72.6832 42.2969 80.5632 48.587 83.8832 51.087C84.1932 50.797 84.4932 50.477 84.7832 50.157C80.9332 47.257 73.8932 41.427 73.6832 38.637C73.5032 36.327 74.4232 34.007 75.8332 33.257C76.1765 33.0728 76.5691 33.0016 76.9552 33.0537C77.3413 33.1058 77.701 33.2784 77.9832 33.547C79.1799 34.545 80.0678 35.863 80.5432 37.347C80.9267 38.4575 81.5323 39.4782 82.3232 40.347C84.1726 41.9907 86.1231 43.5171 88.1632 44.917C88.3432 44.517 88.5232 44.127 88.6832 43.707C86.7771 42.4154 84.9535 41.006 83.2232 39.4869Z" fill="#263238"/>
<path d="M76.2236 35.8974C76.4936 40.3074 83.4836 46.6874 85.9536 48.8174C86.2036 48.4774 86.4536 48.1174 86.6836 47.7574C83.5336 45.0374 77.6836 39.3274 77.5036 35.8174L76.2236 35.8974Z" fill="#263238"/>
<path d="M77.9039 48.4873C76.9639 47.3873 76.2139 46.4873 74.9039 46.4873C72.9039 46.4873 69.9039 49.7973 68.5039 51.4873C68.8238 51.764 69.1576 52.0244 69.5039 52.2673C71.2739 50.1573 73.7439 47.7273 74.8839 47.7273C75.5539 47.7273 76.0139 48.2173 76.8839 49.2473C78.0782 50.7139 79.4995 51.9799 81.0939 52.9973C81.5097 52.7643 81.9135 52.5107 82.3039 52.2373C80.6269 51.2575 79.1371 49.9878 77.9039 48.4873Z" fill="#263238"/>
<path d="M78.9239 54.0072C78.0039 52.6272 76.4839 50.5772 75.3939 50.3072C74.0939 49.9772 72.9439 51.9972 72.2139 53.7472C72.6239 53.8972 73.0339 54.0272 73.4539 54.1372C73.7738 53.152 74.334 52.2619 75.0839 51.5472C75.5439 51.6572 76.5939 52.8972 77.5739 54.3072C78.0302 54.238 78.4812 54.1378 78.9239 54.0072Z" fill="#263238"/>
</svg>
