<svg width="18" height="21" viewBox="0 0 18 21" fill="none" xmlns="http://www.w3.org/2000/svg">
<path d="M17.1864 8.18645C17.1864 3.6496 13.4343 0 8.99999 0C4.46313 0 0.813538 3.64979 0.813538 8.18645V8.52755C0.813538 8.56166 0.949978 9.75552 1.08642 10.2672C2.0415 14.2583 5.28178 17.2939 8.99999 20.1252C12.718 17.2941 15.9585 14.2583 16.9136 10.2672C17.05 9.75552 17.1864 8.59577 17.1864 8.52755V8.18645ZM8.99999 11.5975C7.12393 11.5975 5.58897 10.0625 5.58897 8.18645C5.58897 6.31039 7.12393 4.77543 8.99999 4.77543C10.876 4.77543 12.411 6.31039 12.411 8.18645C12.411 10.0625 10.876 11.5975 8.99999 11.5975Z" fill="#FFC83A"/>
<circle cx="8.99999" cy="8.18621" r="4.54803" fill="#FFF3D0"/>
<circle cx="9" cy="8.18634" r="2.72882" fill="#3C3E42"/>
</svg>
