<svg width="54" height="54" viewBox="0 0 54 54" fill="none" xmlns="http://www.w3.org/2000/svg">
<path d="M27 54C41.9117 54 54 41.9117 54 27C54 12.0883 41.9117 0 27 0C12.0883 0 0 12.0883 0 27C0 41.9117 12.0883 54 27 54Z" fill="#F7931E"/>
<path d="M26.7168 12.1934C22.5223 12.1934 19.1221 15.5936 19.1221 19.7879C19.1221 23.9823 22.5223 27.3828 26.7168 27.3828C30.9113 27.3828 34.3115 23.9823 34.3115 19.7879C34.3115 15.5936 30.9113 12.1934 26.7168 12.1934ZM26.7168 22.9275C24.9829 22.9275 23.5773 21.5218 23.5773 19.788C23.5773 18.0542 24.9829 16.6486 26.7168 16.6486C28.4506 16.6486 29.8563 18.0542 29.8563 19.788C29.8563 21.5218 28.4506 22.9275 26.7168 22.9275Z" fill="white"/>
<path d="M29.4111 33.4314C32.4523 32.8118 34.2747 31.3716 34.3712 31.2943C35.2611 30.5806 35.404 29.2806 34.6903 28.3906C33.9768 27.5007 32.6769 27.3577 31.7867 28.0713C31.7679 28.0865 29.8242 29.5776 26.626 29.5798C23.4279 29.5776 21.443 28.0865 21.4242 28.0713C20.5341 27.3577 19.2342 27.5007 18.5206 28.3906C17.8069 29.2806 17.9499 30.5806 18.8398 31.2943C18.9375 31.3727 20.8352 32.8504 23.9617 33.4554L19.6044 38.0091C18.8125 38.8303 18.8363 40.1379 19.6575 40.9298C20.0583 41.3162 20.5749 41.5083 21.0911 41.5083C21.6323 41.5083 22.1729 41.2969 22.5782 40.8765L26.6261 36.5644L31.0828 40.9044C31.8904 41.7106 33.1979 41.7093 34.0039 40.9022C34.8099 40.0949 34.8089 38.7871 34.0016 37.9811L29.4111 33.4314Z" fill="white"/>
<path d="M26.6262 29.5801C26.6187 29.5801 26.6335 29.5802 26.6262 29.5804C26.6189 29.5802 26.6336 29.5801 26.6262 29.5801Z" fill="white"/>
</svg>
