<svg width="118" height="129" viewBox="0 0 118 129" fill="none" xmlns="http://www.w3.org/2000/svg">
<path d="M59 1.18335C50.1434 9.48173 27.4286 17.7801 1 35.4474C1 35.4474 2.66165 95.1957 59 127.817V1.18335Z" fill="#FFC83A" stroke="#3C3E42" stroke-linecap="round" stroke-linejoin="round"/>
<path d="M59 1.18335C67.8636 9.48173 90.5669 17.7801 117 35.4474C117 35.4474 115.339 95.1957 59 127.817V1.18335Z" fill="#3C3E42" stroke="#3C3E42" stroke-linecap="round" stroke-linejoin="round"/>
<path d="M58.9954 6.0166C48.2013 13.4671 29.5502 20.5593 4.86621 37.0105C4.86621 37.0105 6.41418 92.5978 58.9954 122.983C111.585 92.5978 113.133 37.0105 113.133 37.0105C88.4488 20.5593 69.8563 13.4671 58.9954 6.0166Z" fill="#3C3E42" stroke="#3C3E42" stroke-linecap="round" stroke-linejoin="round"/>
<path d="M113.133 37.0105C88.4512 20.5676 69.8601 13.4671 59 6.0166V122.983C111.585 92.5978 113.133 37.0105 113.133 37.0105Z" fill="#FFC83A" stroke="#3C3E42" stroke-linecap="round" stroke-linejoin="round"/>
<path d="M78.8826 62.0833H39.1005C38.2364 62.0835 37.4067 61.7435 36.7896 61.1364C36.1725 60.5292 35.8171 59.7034 35.7998 58.8361V40.4133C35.7998 27.847 46.2054 17.6167 58.9957 17.6167C71.786 17.6167 82.1998 27.847 82.1998 40.4133V58.8361C82.1825 59.7063 81.8248 60.5346 81.2041 61.1422C80.5834 61.7498 79.7495 62.0878 78.8826 62.0833ZM42.4013 55.6221H75.5736V40.4133C75.5736 35.9974 73.8261 31.7624 70.7156 28.6399C67.6051 25.5174 63.3864 23.7632 58.9874 23.7632C54.5885 23.7632 50.3698 25.5174 47.2592 28.6399C44.1487 31.7624 42.4013 35.9974 42.4013 40.4133V55.6221Z" fill="white" stroke="#3C3E42" stroke-linecap="round" stroke-linejoin="round"/>
<path d="M84.1337 53.3833H32.9004V94.95H84.1337V53.3833Z" fill="#FFC83A" stroke="#3C3E42" stroke-linecap="round" stroke-linejoin="round"/>
<path d="M63.8335 70.4872C63.7804 69.0082 63.197 67.6089 62.2057 66.5827C61.2144 65.5566 59.8924 64.9834 58.5169 64.9834C57.1413 64.9834 55.8193 65.5566 54.828 66.5827C53.8368 67.6089 53.2534 69.0082 53.2002 70.4872C53.2045 71.5044 53.4668 72.501 53.9587 73.3697C54.4506 74.2383 55.1536 74.946 55.9917 75.4164L55.101 85.2834H61.9327L61.042 75.4164C61.8802 74.946 62.5831 74.2383 63.075 73.3697C63.567 72.501 63.8292 71.5044 63.8335 70.4872V70.4872Z" fill="#3C3E42" stroke="#3C3E42" stroke-linecap="round" stroke-linejoin="round"/>
</svg>
