<svg width="107" height="122" viewBox="0 0 107 122" fill="none" xmlns="http://www.w3.org/2000/svg">
<path d="M54.0002 0V122L0.306641 91.5V30.5L54.0002 0Z" fill="#FFC83A"/>
<path d="M52.9998 0V122L106.693 91.5V30.5L52.9998 0Z" fill="#3C3E42"/>
<path d="M8.60065 35.2914L54 9.57465L99.3993 35.2914V86.7086L54 112.425L8.60065 86.7086V35.2914Z" fill="#FFC83A" stroke="#3C3E42"/>
<g clip-path="url(#clip0_9_5861)">
<path d="M58.314 76.6657L56.4986 74.8513L55.5922 73.9448C53.6266 74.1885 51.6314 73.9805 49.7583 73.3367C47.8852 72.6928 46.1837 71.6301 44.7833 70.2294C43.3829 68.8287 42.3204 67.1268 41.6768 65.2535C41.0332 63.3802 40.8254 61.3847 41.0693 59.4189L40.1641 58.5136L38.3363 56.6856C35.0893 57.1066 31.8021 56.3004 29.1182 54.4248L23 55.4963L23.0074 66.5039L29.5088 67.651C30.0698 69.7425 30.8984 71.7528 31.9739 73.6322L28.1906 79.0356L35.9704 86.8163L41.3867 83.0363C43.2648 84.1113 45.2725 84.9419 47.361 85.5079L48.5006 92.0038H59.4994L60.5832 85.8886C58.7039 83.2046 57.8946 79.9154 58.314 76.6657Z" fill="#3C3E42"/>
<path d="M78.4976 54.3491C77.929 52.2659 77.0986 50.2632 76.0263 48.3889L79.8095 42.9707L72.0298 35.1913L66.6271 38.975C64.7491 37.8998 62.7414 37.0692 60.6528 36.5033L59.507 30H48.4933L47.417 36.1077C49.2966 38.7934 50.1051 42.0846 49.6837 45.3357L52.4179 48.0702C54.3826 47.8273 56.3768 48.0357 58.2489 48.6794C60.1209 49.3232 61.8216 50.3854 63.2214 51.7854C64.6213 53.1853 65.6836 54.886 66.3274 56.7583C66.9713 58.6305 67.1798 60.6249 66.9371 62.5899L67.8435 63.4964L69.6626 65.317C72.9169 64.8923 76.2123 65.7019 78.8994 67.5864L84.9927 66.5038L85.0002 55.4962L78.4976 54.3491Z" fill="#3C3E42"/>
<path d="M75.4386 70.0282C74.3347 68.9259 72.9566 68.1381 71.4466 67.746C69.9366 67.3538 68.3493 67.3716 66.8484 67.7974L64.5388 65.4883L49.5187 50.4761L47.2005 48.1582C47.6283 46.6569 47.647 45.0685 47.2547 43.5575C46.8624 42.0465 46.0734 40.6677 44.9694 39.5639C44.7636 39.3582 44.5491 39.1644 44.3291 38.9836C42.7619 37.6979 40.7965 36.9967 38.7692 37C38.3972 36.9998 38.0255 37.0231 37.6564 37.0697C37.1048 37.1394 36.5611 37.2619 36.0329 37.4355L37.5573 38.9597L41.6504 43.0522L36.0568 48.6449L31.9626 44.5513L30.4382 43.0271C29.9776 44.429 29.8782 45.9243 30.149 47.3748C30.4199 48.8252 31.0523 50.184 31.9876 51.3253C32.1684 51.543 32.3611 51.7607 32.5669 51.9632C33.669 53.0664 35.0455 53.8556 36.5544 54.2494C38.0632 54.6433 39.6499 54.6275 41.1506 54.2038L43.4689 56.5217L58.4846 71.535L60.7931 73.8431C60.4137 75.177 60.3566 76.582 60.6265 77.9424C60.8965 79.3027 61.4858 80.5795 62.3458 81.6676C62.7386 82.1653 63.1844 82.6187 63.6754 83.0198C64.8171 83.9526 66.1754 84.5827 67.625 84.8522C69.0746 85.1216 70.5687 85.0216 71.9694 84.5614L66.3529 78.9458L71.9466 73.3531L77.563 78.9687C78.022 77.568 78.1213 76.0745 77.8519 74.6254C77.5825 73.1763 76.9529 71.8182 76.0212 70.676C75.8381 70.4504 75.6436 70.2341 75.4386 70.0282Z" fill="white" stroke="#3C3E42"/>
</g>
<defs>
<clipPath id="clip0_9_5861">
<rect width="62" height="62" fill="white" transform="translate(23 30)"/>
</clipPath>
</defs>
</svg>
